<?xml version="1.0" encoding="utf-8"?>
<!-- Generator: Adobe Illustrator 24.3.0, SVG Export Plug-In . SVG Version: 6.00 Build 0)  -->
<svg version="1.1" id="Layer_1" xmlns="http://www.w3.org/2000/svg" xmlns:xlink="http://www.w3.org/1999/xlink" x="0px" y="0px"
	 viewBox="0 0 100 100" style="enable-background:new 0 0 100 100;" xml:space="preserve">
<style type="text/css">
	.st0{fill:#9EC4FF;}
</style>
<g id="Category-Mattress">
	<g id="Category-Mattress---Desktop" transform="translate(-360.000000, -1115.000000)">
		<g id="Section-2" transform="translate(90.000000, 950.000000)">
			<g id="icon-row" transform="translate(49.000000, 160.000000)">
				<g id="icon-2" transform="translate(217.000000, 5.000000)">
					<g id="ying-yang-icon" transform="translate(4.000000, 0.000000)">
						<g>
							<path id="yin-yang-icon" class="st0" d="M51.1,5c0.1,0,0.2,0,0.2,0c0.4,0,0.9,0.1,1.3,0.1c0.1,0,0.1,0,0.2,0
								c0.1,0,0.1,0,0.2,0c14.2,1.3,28.1,8.3,35.4,21c9.9,17.2,7.8,37.8-4.6,53c0,0,0,0.1-0.1,0.1l0,0l-0.2,0.2l0,0l-0.2,0.2
								l-0.1,0.1C74.5,90,61.1,95.6,47.6,94.9c-0.2,0-0.5,0-0.7,0s-0.3,0-0.4-0.1c-0.7-0.1-1.5-0.1-2.2-0.2
								C30.1,92.8,17.5,83.5,10.7,71c-8.9-15-6.2-34.5,3.7-48.4C22.6,11,36.3,5.3,50.3,5.1c0.2,0,0.4,0,0.6-0.1C51,5,51.1,5,51.1,5z
								 M41.3,7.7c-10.5,2-20.3,7.5-26.2,16.8c-8.7,13.7-11.6,31.2-3,45.7c6.6,12.2,19.2,21.5,33.2,22.9c0.8,0.1,1.6,0.1,2.3,0.2
								c13.4-0.5,27-12.2,23.3-26.8c-1.7-6.5-6.5-12.4-13.2-14.1c-5.8-1.4-11.9-1-17.4-3.6c-10.1-5-16.2-16.8-11.6-27.7
								C31.2,15.1,35.7,10.4,41.3,7.7z M51.5,6.7h-1.2C37.3,8.2,24.9,21.4,29.9,35c2.6,7,8.6,12.4,15.9,13.9
								c5.7,1.2,12,0.7,17.1,3.9c8.8,5.5,12.6,16.7,8.5,26.4c-2.6,6.2-7.3,10.7-13,13.3c9.3-1.9,17.8-6.8,24.1-14.2
								C94.6,63.6,96.6,43.6,87.1,27C80,14.7,66.5,8,52.7,6.8c-0.8,0-1.6,0-2.5,0L51.5,6.7z M47.2,67.3c2.9-1.5,6.8-0.8,8.3,2.4
								c1.4,2.9,0.6,6.6-2.4,8.2c-3.1,1.6-6.9,1-8.5-2.4c-1.4-3-0.3-5.9,2.2-7.9c0.1-0.1,0.1-0.1,0.2-0.1
								C47,67.3,47.1,67.3,47.2,67.3z M52.3,76.5c5-3.3,0.7-10.8-4.5-7.8c-2,1.5-3.1,4.2-1.5,6.5C47.7,77.2,50.2,77.9,52.3,76.5z
								 M50.4,23.8c0.1,0,0.2,0,0.2,0c7.3,0.6,7.5,12.2-0.2,12.2c-3.5,0-6.7-2.3-6.5-6.1c0.2-3.6,2.8-5.8,6.2-6.1
								C50.3,23.8,50.3,23.8,50.4,23.8z M50.4,25.4c-2.5,0.2-5,1.8-4.9,4.5s2.1,4.8,4.9,4.5C56.1,33.8,56,25.6,50.4,25.4z"/>
						</g>
					</g>
				</g>
			</g>
		</g>
	</g>
</g>
</svg>
