<svg xmlns="http://www.w3.org/2000/svg" xmlns:xlink="http://www.w3.org/1999/xlink" width="72" height="72"><defs><path id="a" d="M0 .0003375h71.0210939v64.3308031H0z"/></defs><g fill="none" fill-rule="evenodd" transform="translate(0 3)"><mask id="b" fill="#fff"><use xlink:href="#a"/></mask><path fill="#9ec4ff" d="M9.511875 40.6339875c.347625.486.70875.963 1.0845 1.429875 2.5335 3.1455 5.8365 5.5305 9.59175 6.987375 3.459375 1.341 7.2585 1.647 10.987875 1.728-4.527 2.417625-9.716625 2.89575-14.80275 2.16-5.365125-.77625-11.289375-2.934-15.0525-6.9975 2.316375-2.37825 5.06025-4.1715 8.191125-5.30775M5.46975 19.2668625c7.660125-1.762875 16.259625.853875 21.664125 6.445125 5.846625 6.049125 8.697375 15.45975 6.8895 23.6745-.169875.7695-4.264875.241875-4.924125.208125-2.19375-.1125-4.36275-.417375-6.496875-.937125-4.062375-.988875-7.498125-3.31875-10.33425-6.332625-5.680125-6.0345-8.386875-14.923125-6.798375-23.058M27.342 9.8989875c1.224-1.917 2.647125-3.699 4.122-5.427.982125-1.14975 2.491875-3.054375 4.046625-3.3885 1.44675.311625 2.74275 1.96875 3.70125 2.99925 1.5075 1.62225 2.842875 3.42675 4.09275 5.250375 2.404125 3.511125 4.10625 7.407 5.166 11.52-2.165625 1.2195-4.14 2.7585-5.8095 4.5855-3.996 4.370625-6.561 10.238625-7.15275 16.216875-.61425-5.94225-3.231-11.694375-7.14825-16.216875-1.62-1.870875-3.598875-3.427875-5.792625-4.649625 1.0125-3.891375 2.608875-7.49925 4.7745-10.89m38.210625 9.367875c1.576125 8.060625-1.08225 16.34175-6.34275 22.548375-2.6775 3.159-6.130125 5.4225-10.0755 6.6465-2.089125.648-4.289625.910125-6.460875 1.0845-.747.059625-5.46075.66375-5.6745-.15975-2.0745-8.01 1.164375-17.092125 6.433875-23.17725 5.22225-6.028875 14.342625-8.73 22.11975-6.942375m4.150125 26.67375c-3.810375 4.1175-9.6525 6.09075-15.0525 6.9975-5.027625.84375-10.3365.23625-14.830875-2.174625 3.4875-.1035 6.95025-.42525 10.314-1.46925 3.879-1.20375 7.174125-3.711375 9.849375-6.708375.5535-.621 1.07775-1.26675 1.571625-1.936125 3.112875 1.139625 5.841 2.925 8.148375 5.290875m-29.982375 6.015375c1.855125 1.924875 3.07575 4.476375 1.72575 7.016625-.565875 1.06425-1.54125 1.899-2.500875 2.588625-.72675.522-2.071125 1.39275-3.14325 1.621125-.06525.003375-.1305.01575-.19125.036-.027.003375-.052875.0045-.07875.007875-.9405-.108-2.205-.93825-2.899125-1.31625-1.274625-.693-2.27475-1.733625-3.0555-2.93625-1.55025-2.385-.0045-5.221125 1.72575-7.016625l.001125-.001125c.63675-.324 1.258875-.68175 1.864125-1.0755.03375-.0225.064125-.04725.091125-.072.369.00225.73575.0045 1.101375.005625.239625.001125.46575-.1665.5265-.4005.29925-1.153125.505125-2.31975.62775-3.48975.122625 1.177875.327375 2.345625.624375 3.48975.06075.234.286875.401625.5265.4005.365625-.001125.732375-.0045 1.098-.007875.027.027.0585.05175.093375.075375.60525.39375 1.227375.7515 1.864125 1.0755-.001125-.00225-.001125-.00225-.001125-.001125m-22.948875 2.13525c4.167.603 8.4825.27225 12.3975-1.2015-1.1925 1.82475-1.891125 4.08375-.83925 6.062625.781875 1.4715 1.84725 2.58075 3.196125 3.551625.7335.527625 2.14875 1.364625 3.3165 1.690875.08775.06975.199125.118125.333.1305.11025.010125.22725.0057781.3465-.003375.113625.0091531.223875.012375.325125.003375.131625-.01125.239625-.0585.327375-.126 1.16325-.327375 2.5155-1.191375 3.322125-1.6965 1.37925-.864 2.440125-2.1285 3.196125-3.551625 1.051875-1.978875.354375-4.237875-.83925-6.062625 3.915 1.47375 8.2305 1.8045 12.3975 1.2015 5.9715-.864 12.589875-3.10725 16.630875-7.822125.288-.33525.086625-.76725-.214875-.90675-2.388375-2.509875-5.239125-4.390875-8.465625-5.626125 4.138875-6.098625 5.85675-13.8465 4.345875-21.069-.00225-.009-.005625-.014625-.007875-.023625l-.00675-.02025c-.063-.21825-.22275-.32625-.4005-.345375-5.571-1.366875-11.58075-.525375-16.673625 2.0475-1.1565-4.363875-3.040875-8.37675-5.594625-12.10725-1.281375-1.870875-2.7225-3.66525-4.266-5.32575-.984375-1.05975-2.368125-2.611125-3.875625-2.88225-.075375-.0135-.145125-.01125-.2115.001125-.06525-.012375-.135-.014625-.2115-.001125-1.359.244125-2.52 1.535625-3.456 2.451375-1.59975 1.566-2.97225 3.393-4.289625 5.1975-2.775375 3.8025-4.7655 8.067375-5.97375 12.60675-5.122125-2.547-11.2455-3.324375-16.6905-1.987875-.17775.018-.3375.127125-.4005.34425-.00225.00675-.0045.0135-.00675.021375-.00225.007875-.005625.014625-.007875.023625-1.5435 7.38225.298125 14.871375 4.402125 21.0465-3.250125 1.23525-6.12 3.123-8.521875 5.6475-.302625.138375-.502875.5715-.214875.90675 4.042125 4.717125 10.6605 6.960375 16.632 7.824375" mask="url(#b)"/></g></svg>