<?xml version="1.0" encoding="UTF-8"?>
<svg width="57px" height="62px" viewBox="0 0 57 62" version="1.1" xmlns="http://www.w3.org/2000/svg" xmlns:xlink="http://www.w3.org/1999/xlink">
    <title>Swiss-flag</title>
    <g id="Swiss-flag" stroke="none" stroke-width="1" fill="none" fill-rule="evenodd">
        <g>
            <path d="M0.880904,2.51805714 C0.674424,2.40148571 0.476064,2.42662857 0.324104,2.52377143 C0.159384,2.60377143 0.035264,2.76034286 0.034104,2.99691429 C-0.012296,21.1157714 0.143144,39.2357714 0.100224,57.3546286 C-0.052896,57.5957714 -0.052896,57.9454857 0.256824,58.1477714 C7.883824,63.1272 17.154544,61.3157714 25.436944,59.2277714 C35.689024,56.6437714 45.872664,54.6974857 56.071384,58.5694857 C56.294104,58.6540571 56.473904,58.5934857 56.592224,58.4677714 C56.797544,58.4049143 56.963424,58.2357714 56.962276,57.9614857 C56.894984,39.6769143 56.826544,21.3923429 56.759264,3.10891429 C56.759264,3.00377143 56.731424,2.91577143 56.689664,2.84034286 C56.770864,2.57062857 56.679224,2.23005714 56.338184,2.10091429 C47.878304,-1.10022857 38.374424,0.1752 29.740544,2.02091429 C20.313224,4.03577143 9.966024,7.66662857 0.880904,2.51805714 Z" id="Fill-1" fill="#E03131"></path>
            <path d="M47.237056,22.1779429 C43.174736,21.7528 39.107776,22.2533714 35.108096,22.9802286 C34.994416,18.8453714 34.954976,14.7082286 34.832016,10.5733714 C34.820416,10.1802286 34.473576,10.0042286 34.167336,10.0442286 C34.096576,10.0268542 34.020016,10.0213714 33.936496,10.0328 C30.036576,10.5653714 26.214376,11.3950857 22.449016,12.5265143 C22.237896,12.5905143 22.119576,12.7345143 22.075496,12.8968 C21.964136,12.9859429 21.888736,13.1230857 21.893376,13.3093714 C21.983856,17.4602286 22.073176,21.6099429 22.163656,25.7608 C17.973736,26.9710857 13.642296,27.1162286 9.338696,26.3882286 C8.808576,26.2990857 8.505816,26.8716571 8.683296,27.2179429 C8.515096,31.0088 8.472176,34.7996571 8.555696,38.5939429 C8.558016,38.6945143 8.583536,38.7790857 8.622976,38.8510857 C8.606736,39.0796571 8.725056,39.2968 9.027816,39.3413714 C13.439296,39.9859429 17.776536,39.6282286 21.986176,38.2236571 C22.170616,42.3653714 22.396816,46.5036571 22.672896,50.6408 C22.684496,50.8179429 22.763376,50.9505143 22.874736,51.0396571 C22.953616,51.2990857 23.191416,51.4922286 23.524336,51.3665143 C26.829176,50.1116571 30.224496,49.2648 33.739296,48.8453714 C34.068736,48.9699429 34.526936,48.8053714 34.532736,48.3505143 C34.590736,44.1288 34.647576,39.9070857 34.705576,35.6853714 C38.787616,34.4088 42.977536,33.8705143 47.241696,34.4190857 C47.564176,34.4602286 47.739336,34.2590857 47.770656,34.0168 C47.786896,33.9699429 47.799656,33.9208 47.804296,33.8648 C48.103576,30.1448 48.148816,26.4305143 47.941176,22.7036571 C47.919136,22.3002286 47.547936,22.1253714 47.237056,22.1779429" id="Fill-4" fill="#F8F6F2"></path>
        </g>
    </g>
</svg>