<svg xmlns="http://www.w3.org/2000/svg" xmlns:xlink="http://www.w3.org/1999/xlink" width="72px" height="72px" viewBox="0 0 72 72" version="1.1">
    <!-- Generator: Sketch 61 (89581) - https://sketch.com -->
    <title>Icon-14</title>
    <desc>Created with Sketch.</desc>
    <g id="Icon-14" stroke="none" stroke-width="1" fill="none" fill-rule="evenodd">
        <path d="M39.0770376,14.0968453 C39.1876611,14.0023765 39.3468318,13.9617784 39.5131651,14.0453169 C47.0339773,17.8326547 54.4147193,21.8745116 61.6482285,26.1662032 C61.8201328,26.2684793 61.8575379,26.4355562 61.8145619,26.5831148 C61.8814135,26.7400422 61.8535587,26.9313219 61.6593705,27.0406246 C59.6960008,28.1508275 57.7294477,29.259469 55.7644863,30.3688912 C57.5997236,31.4080473 59.42939,32.4557916 61.2518937,33.5152468 C61.2948698,33.541011 61.3282956,33.5714596 61.3569463,33.6042504 C61.6729,33.6206458 61.8742508,34.1023584 61.5304423,34.3186215 C59.7254474,35.4538079 57.8965768,36.5515191 56.0541768,37.6258083 C57.9873041,38.6743333 59.9069019,39.7486224 61.8145619,40.8439914 C62.1241487,41.0219987 62.0055666,41.4131461 61.7548729,41.521668 C61.7238346,41.5692928 61.6792668,41.6122331 61.6179861,41.6465854 C51.9706543,46.9360543 42.4148456,52.3605901 32.940214,57.9436148 C32.8335696,58.0060734 32.7293129,58.0123193 32.6409732,57.9834322 C32.5749174,57.9865551 32.5040864,57.9701597 32.430868,57.9264386 C25.1671163,53.5106104 17.7967204,49.268105 10.3252511,45.2004839 C10.1581219,45.1099188 10.1127583,44.9568951 10.1445924,44.8171438 C10.1000246,44.6711466 10.1406131,44.5087541 10.3236594,44.4189698 C12.3674102,43.4126044 14.3864896,42.3601757 16.4127317,41.3194581 C14.3490845,40.2061322 12.2774788,39.108421 10.1939353,38.0302282 C10.000543,37.9302943 9.96711714,37.7499449 10.0268061,37.5969211 C10.0363564,37.4946451 10.0936578,37.3978341 10.217015,37.3345947 C12.2392779,36.2954385 14.259949,35.2562824 16.2822118,34.2179069 C14.3387385,33.131126 12.3960609,32.0412221 10.4509959,30.9575642 C10.2241777,30.8310853 10.2241777,30.5921809 10.3355971,30.4274462 C10.3268428,30.3040903 10.3769815,30.1768307 10.51546,30.0925115 C19.8070454,24.37442 29.3342034,19.0388878 39.0770376,14.0968453 Z M55.2829951,38.0731685 C47.9428416,42.3187969 40.3925828,46.2115337 33.0802841,50.5071289 C32.9664771,50.574272 32.8550577,50.5758335 32.761147,50.5383583 C32.6879285,50.5469464 32.6091391,50.5313317 32.5271662,50.4829262 C27.4894158,47.4661723 22.3864054,44.5595018 17.2229102,41.759011 C15.2221354,42.784114 13.2285233,43.8232702 11.2158107,44.8233897 C18.4755831,48.784831 25.6398531,52.9110071 32.7030497,57.201918 C42.0121439,51.7180465 51.4024152,46.3871987 60.8786386,41.1867334 C59.0250966,40.1272782 57.1612085,39.0873412 55.2829951,38.0731685 Z M14.3825104,36.0495075 C13.3176589,36.5968016 12.2520115,37.1440958 11.18716,37.6913899 C18.5225384,41.5044919 25.7393347,45.5322956 32.8256111,49.7740203 C33.8498741,49.1728555 34.8805039,48.5802789 35.9135213,47.9923866 C28.7333343,44.016892 21.5634933,40.0242213 14.3825104,36.0495075 Z M17.0796567,34.6644864 C16.4533203,34.9861486 15.8253921,35.3085915 15.1982599,35.6310344 C22.3641216,39.5987216 29.5228206,43.5843657 36.6894781,47.552053 C37.7965098,46.9266855 38.906725,46.3060024 40.0185318,45.6900038 C38.0209404,44.7070604 36.067121,43.64214 34.1029554,42.5975187 C33.6787657,42.8372038 33.2553718,43.0761083 32.8319779,43.3157934 C32.6338105,43.4274383 32.4451933,43.3501457 32.3409366,43.2111752 C32.2963688,43.2041486 32.2510051,43.1900954 32.2064374,43.1643312 C27.1710745,40.3193386 22.1277532,37.4883992 17.0796567,34.6644864 Z M37.5720793,40.6394393 C36.6775403,41.1445738 35.7822055,41.6497083 34.8884625,42.1548428 C36.8558114,43.2049293 38.8159977,44.2706304 40.8263228,45.244205 C41.7288202,44.7460971 42.6305218,44.2495506 43.5338152,43.7537849 C41.5195109,42.7653764 39.551366,41.6926487 37.5720793,40.6394393 Z M41.4502716,38.4502628 L38.3567905,40.1967634 C40.3408523,41.2554379 42.3177516,42.3305079 44.3447895,43.3095476 C45.3857654,42.7380507 46.428333,42.1665538 47.4669214,41.5934955 C46.2478335,40.9952976 45.0450766,40.3659015 43.8462735,39.7285795 L41.4502716,38.4502628 L41.4502716,38.4502628 Z M39.3468318,14.8143393 C29.7671475,19.6775277 20.3975684,24.9224948 11.2548075,30.5359681 C18.3808766,34.5059975 25.494212,38.4971068 32.5956096,42.5100765 C32.61471,42.5210068 32.6306271,42.5334985 32.6465442,42.5459903 C37.7893472,39.6408812 42.9337419,36.7373337 48.0789325,33.8345668 C48.135438,33.7760118 48.2078607,33.7322907 48.2906294,33.7151146 L48.2906294,33.7151146 L60.8881888,26.6034139 C53.8440926,22.4358589 46.6623139,18.5040854 39.3468318,14.8143393 Z M44.824689,36.5452732 C43.9611883,37.0324509 43.0984835,37.5196285 42.2357787,38.0068062 C44.2373493,39.0748495 46.2309615,40.160069 48.2747123,41.146916 C48.2747123,41.146916 48.2747123,41.1476967 48.2755082,41.1476967 C49.1429881,40.6683264 50.0096722,40.1873946 50.8747645,39.7041206 C48.829422,38.7032204 46.8334223,37.6133165 44.824689,36.5452732 Z M32.775154,40.2365808 C33.2733581,40.2365808 33.2733581,40.9938922 32.775154,40.9938922 C32.27695,40.9938922 32.27695,40.2365808 32.775154,40.2365808 Z M32.4763112,39.3178137 C32.1237482,38.9719488 32.6704993,38.4363657 33.0222664,38.7822306 C33.0389793,38.7994068 33.0564881,38.8158022 33.0739969,38.8329783 C33.4265598,39.1788432 32.8806046,39.7144263 32.5280416,39.3685614 C32.5105329,39.3513853 32.4938199,39.3349899 32.4763112,39.3178137 Z M29.5287895,38.6712884 C30.0269935,38.6712884 30.0269935,39.4285998 29.5287895,39.4285998 C29.0305854,39.4285998 29.0305854,38.6712884 29.5287895,38.6712884 Z M35.6220003,38.6206188 C36.1202044,38.6206188 36.1202044,39.3779302 35.6220003,39.3779302 C35.1237962,39.3779302 35.1237962,38.6206188 35.6220003,38.6206188 Z M48.4028447,34.5255159 L45.610196,36.1018167 C47.6022164,37.1651756 49.5862783,38.2449299 51.6212748,39.2270925 C51.6395794,39.2364613 51.6539048,39.2466109 51.6698218,39.2567604 C52.6129078,38.7258617 53.5551979,38.1902785 54.4958964,37.6492303 C52.4831838,36.5733796 50.4537582,35.5295391 48.4028447,34.5255159 L48.4028447,34.5255159 Z M26.4331595,36.8589719 C26.9313636,36.8589719 26.9313636,37.6170641 26.4331595,37.6162833 C25.9349554,37.6162833 25.9349554,36.8589719 26.4331595,36.8589719 Z M32.3888469,37.1308233 C32.3888469,36.6420842 33.1608245,36.6420842 33.1608245,37.1308233 L33.1608245,37.1308233 L33.1608245,37.2315379 C33.1608245,37.720277 32.3888469,37.720277 32.3888469,37.2315379 L32.3888469,37.2315379 Z M35.6220003,36.7522457 C36.1202044,36.7522457 36.1202044,37.5095571 35.6220003,37.5095571 C35.1237962,37.5095571 35.1237962,36.7522457 35.6220003,36.7522457 Z M29.5287895,36.7015761 C30.0269935,36.7015761 30.0269935,37.4588875 29.5287895,37.4588875 C29.0305854,37.4588875 29.0305854,36.7015761 29.5287895,36.7015761 Z M38.9655385,36.6005492 C39.4645385,36.6005492 39.4645385,37.3578606 38.9655385,37.3578606 C38.4673345,37.3578606 38.4673345,36.6005492 38.9655385,36.6005492 Z M51.6929016,32.6681511 C50.8620309,33.1365911 50.0319561,33.6058119 49.2018812,34.074252 C51.2440404,35.0806173 53.2663032,36.1244579 55.2694656,37.2003086 C56.0716856,36.7342107 56.8723138,36.2649899 57.6697587,35.7895233 C55.6506793,34.7995533 53.6769635,33.7237027 51.6929016,32.6681511 Z M23.3523324,35.2369202 C23.8505365,35.2369202 23.8505365,35.9950123 23.3523324,35.9942316 C22.8541283,35.9942316 22.8541283,35.2369202 23.3523324,35.2369202 Z M42.3051771,35.0852237 C42.8025853,35.0852237 42.8025853,35.8433158 42.3051771,35.8425351 C41.806973,35.8425351 41.806973,35.0852237 42.3051771,35.0852237 Z M35.6220003,35.0852237 C36.1202044,35.0852237 36.1202044,35.8433158 35.6220003,35.8425351 C35.1237962,35.8425351 35.1237962,35.0852237 35.6220003,35.0852237 Z M26.4331595,35.0417368 C26.9313636,35.0417368 26.9313636,35.7990482 26.4331595,35.7990482 C25.9349554,35.7990482 25.9349554,35.0417368 26.4331595,35.0417368 Z M29.5287895,34.9845871 C30.0269935,34.9845871 30.0269935,35.7418985 29.5287895,35.7418985 C29.0305854,35.7418985 29.0305854,34.9845871 29.5287895,34.9845871 Z M32.3886082,35.2624502 C32.3886082,34.773711 33.1605857,34.773711 33.1605857,35.2624502 L33.1605857,35.2624502 L33.1605857,35.3131978 C33.1605857,35.8019369 32.3886082,35.8019369 32.3886082,35.3131978 L32.3886082,35.3131978 Z M38.5800273,35.1610329 C38.5800273,34.6730745 39.3520048,34.6730745 39.3520048,35.1610329 L39.3520048,35.1610329 L39.3520048,35.2117806 C39.3520048,35.7005197 38.5800273,35.7005197 38.5800273,35.2117806 L38.5800273,35.2117806 Z M54.9925087,30.8053211 C54.1536795,31.2784456 53.3156461,31.75157 52.4776128,32.2246945 C54.4537161,33.2794653 56.4202693,34.3490701 58.4393487,35.3242062 C59.1564124,34.8908991 59.8718843,34.4529077 60.5841729,34.0094511 C58.7258558,32.9312582 56.8619677,31.8624342 54.9925087,30.8053211 Z M26.4331595,33.4253844 C26.9313636,33.4253844 26.9313636,34.1826958 26.4331595,34.1826958 C25.9349554,34.1826958 25.9349554,33.4253844 26.4331595,33.4253844 Z M23.3523324,33.4192947 C23.8505365,33.4192947 23.8505365,34.1766061 23.3523324,34.1766061 C22.8541283,34.1766061 22.8541283,33.4192947 23.3523324,33.4192947 Z M19.9420221,33.4192947 C20.4394303,33.4192947 20.4394303,34.1766061 19.9420221,34.1766061 C19.443818,34.1766061 19.443818,33.4192947 19.9420221,33.4192947 Z M32.3886082,33.7471247 C32.3886082,33.2583855 33.1605857,33.2583855 33.1605857,33.7471247 L33.1605857,33.7471247 L33.1605857,33.7978723 C33.1605857,34.2866115 32.3886082,34.2866115 32.3886082,33.7978723 L32.3886082,33.7978723 Z M42.3051771,33.368547 C42.8025853,33.368547 42.8025853,34.1258584 42.3051771,34.1258584 C41.806973,34.1258584 41.806973,33.368547 42.3051771,33.368547 Z M35.6220003,33.368547 C36.1202044,33.368547 36.1202044,34.1258584 35.6220003,34.1258584 C35.1237962,34.1258584 35.1237962,33.368547 35.6220003,33.368547 Z M45.3583881,33.9140455 C45.006621,33.5681806 45.5525762,33.0325974 45.9051392,33.3784623 L45.9051392,33.3784623 L45.9560738,33.42921 C46.3094326,33.7750749 45.7626815,34.310658 45.4109144,33.9647931 L45.4109144,33.9647931 Z M29.5287895,33.3178774 C30.0269935,33.3178774 30.0269935,34.0751888 29.5287895,34.0751888 C29.0305854,34.0751888 29.0305854,33.3178774 29.5287895,33.3178774 Z M38.9655385,33.0654663 C39.4645385,33.0654663 39.4645385,33.8227777 38.9655385,33.8227777 C38.4673345,33.8227777 38.4673345,33.0654663 38.9655385,33.0654663 Z M42.3051771,31.7521946 C42.8025853,31.7521946 42.8025853,32.509506 42.3051771,32.509506 C41.806973,32.509506 41.806973,31.7521946 42.3051771,31.7521946 Z M29.1424824,32.0811957 C29.1424824,31.5924566 29.9152558,31.5924566 29.9152558,32.0811957 L29.9152558,32.0811957 L29.9152558,32.1319434 C29.9152558,32.6206825 29.1424824,32.6206825 29.1424824,32.1319434 L29.1424824,32.1319434 Z M32.3886082,32.0305261 C32.3886082,31.541787 33.1605857,31.541787 33.1605857,32.0305261 L33.1605857,32.0305261 L33.1605857,32.1312407 C33.1605857,32.6199798 32.3886082,32.6199798 32.3886082,32.1312407 L32.3886082,32.1312407 Z M45.6572309,31.701525 C46.155435,31.701525 46.155435,32.4588364 45.6572309,32.4588364 C45.1590269,32.4588364 45.1590269,31.701525 45.6572309,31.701525 Z M16.7290834,31.701525 C17.2272874,31.701525 17.2272874,32.4596172 16.7290834,32.4588364 C16.2308793,32.4588364 16.2308793,31.701525 16.7290834,31.701525 Z M23.3523324,31.6515581 C23.8505365,31.6515581 23.8505365,32.4088695 23.3523324,32.4088695 C22.8541283,32.4088695 22.8541283,31.6515581 23.3523324,31.6515581 Z M26.046932,31.9858681 C26.046932,31.4979098 26.8189095,31.4979098 26.8189095,31.9858681 L26.8189095,31.9858681 L26.8189095,32.0366158 C26.8189095,32.5253549 26.046932,32.5253549 26.046932,32.0366158 L26.046932,32.0366158 Z M35.6220003,31.6008885 C36.1202044,31.6008885 36.1202044,32.3581999 35.6220003,32.3581999 C35.1237962,32.3581999 35.1237962,31.6008885 35.6220003,31.6008885 Z M19.9420221,31.6008885 C20.4394303,31.6008885 20.4394303,32.3581999 19.9420221,32.3581999 C19.443818,32.3581999 19.443818,31.6008885 19.9420221,31.6008885 Z M48.8817891,31.5501408 C49.3799932,31.5501408 49.3799932,32.308233 48.8817891,32.3074522 C48.383585,32.3074522 48.383585,31.5501408 48.8817891,31.5501408 Z M38.9919609,31.3488677 C39.4893691,31.3488677 39.4893691,32.1061792 38.9919609,32.1061792 L38.9919609,32.1061792 L38.9410263,32.1061792 C38.4428222,32.1061792 38.4428222,31.3488677 38.9410263,31.3488677 L38.9410263,31.3488677 Z M23.3523324,29.9349595 C23.8505365,29.9349595 23.8505365,30.6922709 23.3523324,30.6922709 C22.8541283,30.6922709 22.8541283,29.9349595 23.3523324,29.9349595 Z M45.3591043,30.4796772 C45.0065414,30.1338123 45.5524967,29.5982292 45.9050596,29.9440941 C45.9225684,29.9612702 45.9392813,29.9776656 45.9567901,29.9948418 C46.309353,30.3407067 45.7626019,30.8762898 45.4108348,30.5304249 C45.393326,30.5132488 45.3758173,30.4968534 45.3591043,30.4796772 Z M32.3886082,30.2121199 C32.3886082,29.7233808 33.1605857,29.7233808 33.1605857,30.2121199 L33.1605857,30.2121199 L33.1605857,30.2628676 C33.1605857,30.7516067 32.3886082,30.7516067 32.3886082,30.2628676 L32.3886082,30.2628676 Z M51.9198789,29.8331519 C52.418083,29.8331519 52.418083,30.5904633 51.9198789,30.5904633 C51.4216748,30.5904633 51.4216748,29.8331519 51.9198789,29.8331519 Z M42.3051771,29.8331519 C42.8025853,29.8331519 42.8025853,30.5904633 42.3051771,30.5904633 C41.806973,30.5904633 41.806973,29.8331519 42.3051771,29.8331519 Z M16.7290834,29.8331519 C17.2272874,29.8331519 17.2272874,30.5904633 16.7290834,30.5904633 C16.2308793,30.5904633 16.2308793,29.8331519 16.7290834,29.8331519 Z M14.515577,29.8331519 C15.0137811,29.8331519 15.0137811,30.5904633 14.515577,30.5904633 C14.017373,30.5904633 14.017373,29.8331519 14.515577,29.8331519 Z M35.2357728,30.162153 C35.2357728,29.6734138 36.0085462,29.6734138 36.0077503,30.162153 L36.0077503,30.162153 L36.0077503,30.2129006 C36.0077503,30.7016397 35.2357728,30.7016397 35.2357728,30.2129006 L35.2357728,30.2129006 Z M26.3116327,29.7061266 C26.5249214,29.649133 26.7183137,29.7756118 26.7867571,29.9707952 L26.7867571,29.9707952 L26.8241622,30.0769749 C26.8926055,30.2721583 26.7477602,30.4907636 26.5543679,30.5430728 C26.3410793,30.6000663 26.147687,30.4735875 26.0792436,30.2784042 L26.0792436,30.2784042 L26.0418385,30.1722244 C25.974191,29.9770411 26.1182404,29.7584357 26.3116327,29.7061266 Z M29.5287895,29.7824823 C30.0269935,29.7824823 30.0269935,30.5397937 29.5287895,30.5397937 C29.0305854,30.5397937 29.0305854,29.7824823 29.5287895,29.7824823 Z M19.9420221,29.7824823 C20.4394303,29.7824823 20.4394303,30.5405744 19.9420221,30.5397937 C19.443818,30.5397937 19.443818,29.7824823 19.9420221,29.7824823 Z M48.8817891,29.7325154 C49.3799932,29.7325154 49.3799932,30.4898268 48.8817891,30.4898268 C48.383585,30.4898268 48.383585,29.7325154 48.8817891,29.7325154 Z M38.6666957,30.2784042 C38.3149286,29.9325393 38.8608838,29.3969561 39.2134468,29.742821 C39.2301597,29.7592164 39.2476685,29.7763926 39.2651772,29.7935687 C39.6177402,30.1394336 39.0717849,30.6750167 38.719222,30.3291518 C38.7017132,30.3119757 38.6850003,30.2955803 38.6666957,30.2784042 Z M32.8007805,28.2171899 C33.2989846,28.2171899 33.2989846,28.975282 32.8007805,28.9745013 L32.8007805,28.9745013 L32.74905,28.9745013 C32.250846,28.9745013 32.250846,28.2171899 32.74905,28.2171899 L32.74905,28.2171899 Z M42.3051771,28.2171899 C42.8025853,28.2171899 42.8025853,28.975282 42.3051771,28.9745013 C41.806973,28.9745013 41.806973,28.2171899 42.3051771,28.2171899 Z M45.6572309,28.2171899 C46.155435,28.2171899 46.155435,28.9745013 45.6572309,28.9745013 C45.1590269,28.9745013 45.1590269,28.2171899 45.6572309,28.2171899 Z M35.6220003,28.2171899 C36.1202044,28.2171899 36.1202044,28.975282 35.6220003,28.9745013 C35.1237962,28.9745013 35.1237962,28.2171899 35.6220003,28.2171899 Z M54.8064382,28.4950529 C54.8064382,28.0063138 55.5792116,28.0063138 55.5792116,28.4950529 L55.5792116,28.4950529 L55.5792116,28.5458006 C55.5792116,29.0345397 54.8064382,29.0345397 54.8064382,28.5458006 L54.8064382,28.5458006 Z M26.4331595,28.1227992 C26.9313636,28.1227992 26.9313636,28.8801106 26.4331595,28.8801106 C25.9357513,28.8801106 25.9357513,28.1227992 26.4331595,28.1227992 Z M23.3275018,28.070412 C23.5535241,28.0407441 23.7875049,28.2702797 23.7564666,28.492008 C23.7286118,28.6965602 23.6020711,28.8706637 23.3704779,28.8706637 C23.2678128,28.8706637 23.1548016,28.8183546 23.0776039,28.7379391 C22.995631,28.6614272 22.941513,28.550563 22.941513,28.4490677 C22.941513,28.2218743 23.1189883,28.0977376 23.3275018,28.070412 Z M51.5350043,28.4443052 C51.5350043,27.9555661 52.3069819,27.9555661 52.3069819,28.4443052 L52.3069819,28.4443052 L52.3069819,28.4950529 C52.3069819,28.983792 51.5342085,28.983792 51.5350043,28.4950529 L51.5350043,28.4950529 Z M19.9420221,28.0658057 C20.4394303,28.0658057 20.4394303,28.8231171 19.9420221,28.8231171 C19.443818,28.8231171 19.443818,28.0658057 19.9420221,28.0658057 Z M16.7290834,28.0658057 C17.2272874,28.0658057 17.2272874,28.8231171 16.7290834,28.8231171 C16.2308793,28.8231171 16.2308793,28.0658057 16.7290834,28.0658057 Z M29.1424824,28.3944163 C29.1424824,27.9056772 29.9152558,27.9056772 29.9152558,28.3944163 L29.9152558,28.3944163 L29.9152558,28.445164 C29.9152558,28.9339031 29.1424824,28.9339031 29.1424824,28.445164 L29.1424824,28.445164 Z M48.8817891,28.0159168 C49.3799932,28.0159168 49.3799932,28.7732282 48.8817891,28.7732282 C48.383585,28.7732282 48.383585,28.0159168 48.8817891,28.0159168 Z M38.9655385,27.8642984 C39.4645385,27.8642984 39.4645385,28.6216098 38.9655385,28.6216098 C38.4681303,28.6216098 38.4673345,27.8642984 38.9655385,27.8642984 Z M32.775154,26.5003571 C33.2733581,26.5003571 33.2733581,27.2576685 32.775154,27.2576685 C32.27695,27.2576685 32.27695,26.5003571 32.775154,26.5003571 Z M23.3523324,26.4503901 C23.8505365,26.4503901 23.8505365,27.2077016 23.3523324,27.2077016 C22.8541283,27.2077016 22.8541283,26.4496094 23.3523324,26.4503901 Z M48.8817891,26.4494533 C49.3799932,26.4494533 49.3799932,27.2075454 48.8817891,27.2067647 C48.383585,27.2067647 48.383585,26.4494533 48.8817891,26.4494533 Z M55.1926658,26.4494533 C55.6908698,26.4494533 55.6908698,27.2067647 55.1926658,27.2067647 C54.6944617,27.2067647 54.6944617,26.4494533 55.1926658,26.4494533 Z M42.3051771,26.4494533 C42.8025853,26.4494533 42.8025853,27.2075454 42.3051771,27.2067647 C41.806973,27.2067647 41.806973,26.4494533 42.3051771,26.4494533 Z M26.0466932,26.784544 C26.0466932,26.2958049 26.8186708,26.2958049 26.8186708,26.784544 L26.8186708,26.784544 L26.8186708,26.8352917 C26.8186708,27.3232501 26.0466932,27.3232501 26.0466932,26.8352917 L26.0466932,26.8352917 Z M29.5287895,26.3997205 C30.0269935,26.3997205 30.0269935,27.157032 29.5287895,27.157032 C29.0305854,27.157032 29.0305854,26.3997205 29.5287895,26.3997205 Z M51.9198789,26.3997205 C52.418083,26.3997205 52.418083,27.157032 51.9198789,27.157032 C51.4224707,27.157032 51.4216748,26.3997205 51.9198789,26.3997205 Z M35.2357728,26.7277847 C35.2357728,26.2390456 36.0085462,26.2390456 36.0077503,26.7277847 L36.0077503,26.7277847 L36.0077503,26.7785324 C36.0077503,27.2672715 35.2357728,27.2672715 35.2357728,26.7785324 L35.2357728,26.7785324 Z M45.6572309,26.2981471 C46.155435,26.2981471 46.155435,27.0554585 45.6572309,27.0554585 C45.1590269,27.0554585 45.1590269,26.2981471 45.6572309,26.2981471 Z M19.9420221,26.1975106 C20.4394303,26.1975106 20.4394303,26.954822 19.9420221,26.954822 C19.443818,26.954822 19.443818,26.1975106 19.9420221,26.1975106 Z M38.9655385,26.1466068 C39.4645385,26.1466068 39.4645385,26.9039182 38.9655385,26.9039182 C38.4681303,26.9039182 38.4673345,26.1466068 38.9655385,26.1466068 Z M26.4331595,24.7391006 C26.9313636,24.7391006 26.9313636,25.496412 26.4331595,25.496412 C25.9357513,25.496412 25.9357513,24.7391006 26.4331595,24.7391006 Z M55.2187698,24.6827316 C55.7169738,24.6827316 55.7169738,25.440043 55.2187698,25.440043 L55.2187698,25.440043 L55.1670393,25.440043 C54.6688352,25.440043 54.6688352,24.6819509 55.1670393,24.6827316 L55.1670393,24.6827316 Z M32.3888469,25.009937 C32.3888469,24.5211979 33.1608245,24.5211979 33.1608245,25.009937 L33.1608245,25.009937 L33.1608245,25.0606847 C33.1608245,25.5494238 32.3888469,25.5494238 32.3888469,25.0606847 L32.3888469,25.0606847 Z M42.3051771,24.6322182 C42.8025853,24.6322182 42.8025853,25.3895296 42.3051771,25.3895296 C41.806973,25.3895296 41.806973,24.6322182 42.3051771,24.6322182 Z M29.5287895,24.6319839 C30.0269935,24.6319839 30.0269935,25.3892953 29.5287895,25.3892953 C29.0305854,25.3892953 29.0305854,24.6319839 29.5287895,24.6319839 Z M23.3523324,24.6319839 C23.8505365,24.6319839 23.8505365,25.3892953 23.3523324,25.3892953 C22.8541283,25.3892953 22.8541283,24.6319839 23.3523324,24.6319839 Z M35.6220003,24.5814705 C36.1202044,24.5814705 36.1202044,25.3387819 35.6220003,25.3387819 C35.1237962,25.3387819 35.1237962,24.5814705 35.6220003,24.5814705 Z M51.9198789,24.5813143 C52.418083,24.5813143 52.418083,25.3386257 51.9198789,25.3386257 C51.4224707,25.3386257 51.4216748,24.5813143 51.9198789,24.5813143 Z M45.6832553,24.5813143 C46.1814594,24.5813143 46.1814594,25.3386257 45.6832553,25.3386257 L45.6832553,25.3386257 L45.6323207,25.3386257 C45.1333208,25.3386257 45.1333208,24.5813143 45.6323207,24.5813143 L45.6323207,24.5813143 Z M38.9655385,24.5313474 C39.4645385,24.5313474 39.4645385,25.2886588 38.9655385,25.2886588 C38.4681303,25.2886588 38.4673345,24.5313474 38.9655385,24.5313474 Z M48.8817891,24.5304105 C49.3799932,24.5304105 49.3799932,25.2885027 48.8817891,25.2877219 C48.383585,25.2877219 48.383585,24.5304105 48.8817891,24.5304105 Z M32.3886082,23.2940411 C32.3886082,22.805302 33.1605857,22.805302 33.1605857,23.2940411 L33.1605857,23.2940411 L33.1605857,23.3947557 C33.1605857,23.8834948 32.3886082,23.8834948 32.3886082,23.3947557 L32.3886082,23.3947557 Z M45.6572309,22.9652742 C46.155435,22.9652742 46.155435,23.7225856 45.6572309,23.7225856 C45.1598227,23.7225856 45.1590269,22.9652742 45.6572309,22.9652742 Z M29.1424824,23.2937288 C29.1424824,22.8049897 29.9152558,22.8049897 29.9152558,23.2937288 L29.9152558,23.2937288 L29.9152558,23.3444765 C29.9152558,23.8332156 29.1424824,23.8332156 29.1424824,23.3444765 L29.1424824,23.3444765 Z M35.2357728,23.2937288 C35.2357728,22.8049897 36.0085462,22.8049897 36.0077503,23.2937288 L36.0077503,23.2937288 L36.0077503,23.3444765 C36.0077503,23.8332156 35.2357728,23.8332156 35.2357728,23.3444765 L35.2357728,23.3444765 Z M26.0466932,23.2494612 C26.0466932,22.7607221 26.8186708,22.7607221 26.8186708,23.2494612 L26.8186708,23.2494612 L26.8186708,23.3002089 C26.8186708,23.7881673 26.0466932,23.7881673 26.0466932,23.3002089 L26.0466932,23.3002089 Z M41.91887,23.2430592 C41.91887,22.7543201 42.6916434,22.7543201 42.6908475,23.2430592 L42.6908475,23.2430592 L42.6908475,23.2938069 C42.6908475,23.782546 41.91887,23.782546 41.91887,23.2938069 L41.91887,23.2938069 Z M51.9198789,22.8646377 C52.418083,22.8646377 52.418083,23.6219491 51.9198789,23.6219491 C51.4224707,23.6219491 51.4216748,22.8646377 51.9198789,22.8646377 Z M48.4953228,23.0409273 C48.4953228,22.5521882 49.2673004,22.5521882 49.2673004,23.0409273 L49.2673004,23.0409273 L49.2673004,23.091675 C49.2673004,23.5804141 48.4953228,23.5804141 48.4953228,23.091675 L48.4953228,23.091675 Z M38.9655385,22.6622716 C39.4645385,22.6622716 39.4645385,23.419583 38.9655385,23.419583 C38.4681303,23.419583 38.4673345,22.6622716 38.9655385,22.6622716 Z M35.6220003,21.1476488 C36.1202044,21.1476488 36.1202044,21.9049602 35.6220003,21.9049602 C35.1245921,21.9049602 35.1245921,21.146868 35.6220003,21.1476488 Z M29.5287895,21.1476488 C30.0269935,21.1476488 30.0269935,21.9049602 29.5287895,21.9049602 C29.0305854,21.9049602 29.0305854,21.1476488 29.5287895,21.1476488 Z M32.7945728,21.1002582 C33.0221868,21.1002582 33.1582777,21.2735811 33.1805616,21.478914 C33.2060289,21.7068881 32.9800066,21.9254935 32.7484134,21.9028522 C32.5398998,21.8825531 32.3624246,21.7467055 32.3624246,21.5241965 C32.3624246,21.4195782 32.4165426,21.311837 32.4985155,21.2368866 C32.5757132,21.1549096 32.6871327,21.1002582 32.7945728,21.1002582 Z M42.3051771,21.096823 C42.8025853,21.096823 42.8025853,21.8541344 42.3051771,21.8541344 C41.806973,21.8541344 41.806973,21.096823 42.3051771,21.096823 Z M48.4953228,21.3742957 C48.4953228,20.8855566 49.2673004,20.8855566 49.2673004,21.3742957 L49.2673004,21.3742957 L49.2673004,21.4250433 C49.2673004,21.9137825 48.4953228,21.9137825 48.4953228,21.4250433 L48.4953228,21.4250433 Z M45.6572309,20.9963426 C46.155435,20.9963426 46.155435,21.753654 45.6572309,21.753654 C45.1598227,21.753654 45.1590269,20.9963426 45.6572309,20.9963426 Z M38.9655385,20.844568 C39.4645385,20.844568 39.4645385,21.6018795 38.9655385,21.6018795 C38.4681303,21.6018795 38.4673345,20.844568 38.9655385,20.844568 Z M32.5271662,19.5410555 C32.8797291,19.1951906 33.4256844,19.7315545 33.0739173,20.0766387 C33.0556127,20.0938148 33.0396956,20.1102102 33.021391,20.1273863 C32.6696239,20.4732512 32.1228728,19.9376681 32.4762316,19.5918032 C32.4929445,19.5746271 32.5104533,19.5582317 32.5271662,19.5410555 Z M41.91887,19.8086909 C41.91887,19.3207326 42.6916434,19.3207326 42.6908475,19.8086909 L42.6908475,19.8086909 L42.6908475,19.8594386 C42.6908475,20.3481777 41.91887,20.3481777 41.91887,19.8594386 L41.91887,19.8594386 Z M45.6572309,19.3799902 C46.155435,19.3799902 46.155435,20.1373016 45.6572309,20.1373016 C45.1598227,20.1373016 45.1590269,19.3799902 45.6572309,19.3799902 Z M35.6220003,19.3292426 C36.1202044,19.3292426 36.1202044,20.086554 35.6220003,20.086554 C35.1245921,20.086554 35.1245921,19.3292426 35.6220003,19.3292426 Z M38.6666957,19.7228883 C38.3149286,19.3770234 38.8608838,18.8414403 39.2134468,19.1873052 C39.2301597,19.2044814 39.2476685,19.2216575 39.2651772,19.2380529 C39.6177402,19.5839178 39.0717849,20.1195009 38.719222,19.773636 C38.7017132,19.7564599 38.6850003,19.7400645 38.6666957,19.7228883 Z M35.2357728,18.142762 C35.2357728,17.6540229 36.0085462,17.6540229 36.0077503,18.142762 L36.0077503,18.142762 L36.0077503,18.1935097 C36.0077503,18.6822488 35.2357728,18.6822488 35.2357728,18.1935097 L35.2357728,18.1935097 Z M42.3051771,17.7132805 C42.8033811,17.7132805 42.8033811,18.4705919 42.3051771,18.4705919 C41.806973,18.4705919 41.806973,17.7132805 42.3051771,17.7132805 Z M38.5800273,17.8396813 C38.5800273,17.3509421 39.3520048,17.3509421 39.3520048,17.8396813 L39.3520048,17.8396813 L39.3520048,17.8904289 C39.3520048,18.3791681 38.5800273,18.3791681 38.5800273,17.8904289 L38.5800273,17.8904289 Z M38.8660569,15.8449074 C39.364261,15.8449074 39.364261,16.6022188 38.8660569,16.6022188 C38.367057,16.6022188 38.367057,15.8449074 38.8660569,15.8449074 Z" id="Combined-Shape" fill="#f8f6f2"/>
    </g>
</svg>