<svg xmlns="http://www.w3.org/2000/svg" width="24" height="23.994" viewBox="0 0 24 23.994"><path d="M12,23.995c-2.137,0-4.034-.032-4.95-.084a7.116,7.116,0,0,1-5.027-1.939A7.051,7.051,0,0,1,.085,16.944c-.113-1.989-.113-7.91,0-9.9A7.087,7.087,0,0,1,2.022,2.017,7.088,7.088,0,0,1,7.05.085C7.966.033,9.863,0,12,0s4.033.032,4.95.084a7.1,7.1,0,0,1,5.027,1.938A7.052,7.052,0,0,1,23.916,7.05c.113,1.989.113,7.907,0,9.895a7.1,7.1,0,0,1-1.939,5.027A7.049,7.049,0,0,1,16.95,23.91C16.033,23.962,14.137,23.995,12,23.995Zm0-2.162c.247,0,.541,0,.851.006.383,0,.815.008,1.264.008a16.926,16.926,0,0,0,4.958-.5,4.053,4.053,0,0,0,2.281-2.281c.537-1.351.508-4.281.488-6.22,0-.312-.006-.605-.006-.853s0-.541.006-.851c.02-1.939.049-4.866-.488-6.221a4.053,4.053,0,0,0-2.281-2.282,17.2,17.2,0,0,0-5-.495c-.44,0-.863,0-1.237.008-.309,0-.6.006-.841.006s-.544,0-.856-.006c-.383,0-.818-.008-1.269-.008a16.882,16.882,0,0,0-4.947.5A4.054,4.054,0,0,0,2.649,4.925c-.534,1.354-.506,4.291-.487,6.234,0,.306.006.594.006.838s0,.544-.006.857c-.02,1.936-.049,4.862.488,6.217A4.053,4.053,0,0,0,4.93,21.351a17.243,17.243,0,0,0,5.006.5c.439,0,.86,0,1.232-.008C11.475,21.836,11.761,21.833,12,21.833Zm0-3.684a6.143,6.143,0,1,1,4.353-1.8A6.113,6.113,0,0,1,12,18.149ZM12,8a4,4,0,1,0,4,4A4,4,0,0,0,12,8Zm6.4-.968a1.435,1.435,0,1,1,1.435-1.436A1.437,1.437,0,0,1,18.406,7.029Z" transform="translate(0)" fill="#9ec4ff"/></svg>