<?xml version="1.0" encoding="UTF-8"?>
<svg width="72px" height="72px" viewBox="0 0 72 72" version="1.1" xmlns="http://www.w3.org/2000/svg" xmlns:xlink="http://www.w3.org/1999/xlink">
    <!-- Generator: Sketch 61 (89581) - https://sketch.com -->
    <title>Icon-23</title>
    <desc>Created with Sketch.</desc>
    <g id="Icon-23" stroke="none" stroke-width="1" fill="none" fill-rule="evenodd">
        <path d="M55.3954584,16.0000435 C55.7989147,15.9956019 56.1123808,16.3320489 56.1213798,16.7223275 C56.1348783,17.2890539 56.1483769,17.8557803 56.1618754,18.4210113 C56.1828731,19.3540912 54.7325302,19.3525959 54.7100326,18.4210113 C54.7025334,18.0995175 54.6950342,17.775033 54.687535,17.4535391 C42.2883775,17.6030712 29.8892199,17.7077436 17.4900624,17.770547 C17.6955401,30.0276872 17.6265476,42.2893134 17.6220481,54.5464536 C30.0107068,54.4043981 42.3993655,54.263838 54.7880241,54.1247732 C54.7820248,44.58463 54.7745256,35.045982 54.7670264,25.5043434 C54.7655266,24.5712636 56.2173694,24.5712636 56.2158696,25.5058387 C56.2233687,35.2448596 56.2308679,44.9793945 56.2383671,54.7169201 C56.2383671,55.1610302 55.9084028,55.3913095 55.5634402,55.412244 C55.4524522,55.5049538 55.3039683,55.566262 55.1179884,55.5677573 L55.1179884,55.5677573 L17.2815849,55.9999532 C16.9921163,56.0028955 16.7941377,55.8668213 16.6831497,55.6769157 C16.4041799,55.6006543 16.1702053,55.3793469 16.1702053,55.0055169 C16.1732049,42.4298735 16.2511965,29.8557254 16.0322202,17.2815773 C15.9107334,16.8643829 16.1327093,16.3305536 16.6996479,16.327563 C29.5982514,16.2647595 42.4968549,16.1541058 55.3954584,16.0000435 Z M58.769943,17.0536905 C59.4133734,16.3748151 60.4392623,17.3991095 59.795832,18.0764896 C50.7383126,27.6136422 41.6163002,37.0894867 32.4297949,46.5040231 C32.0833324,46.8599093 31.6348809,46.7387883 31.384408,46.4472009 C31.2719202,46.3978553 31.1669316,46.321594 31.079941,46.204959 C28.7626919,43.1096461 26.3464535,40.0861085 24.0292044,36.9922909 C23.4697649,36.2446307 24.7296285,35.5238864 25.2830686,36.2625746 C27.4668322,39.1799444 29.7345867,42.0330155 31.9288491,44.9399181 C40.9383736,35.7048201 49.8864048,26.4099094 58.769943,17.0536905 Z" id="Combined-Shape" fill="#9ec4ff"></path>
    </g>
</svg>