<svg xmlns="http://www.w3.org/2000/svg" width="72" height="72"><path fill="#9ec4ff" fill-rule="evenodd" d="M9.9772575 30.5990137c.1033195 2.8424093.8052183 5.6848186 1.9956386 8.3430496.2863747.6401317 1.2252345.0853509.9411059-.5502886-2.4246391-5.4141664-2.5549116-11.2876554.148241-16.6175939 2.5369429-5.0008884 6.3417958-8.7900188 11.8323288-10.2409839 7.498525-1.98216217 14.6388009 1.5789915 18.8423323 7.4524804.0314451.0707514.0774896.1336416.1336415.1864243 1.444227 2.065267 2.5302047 4.4056783 3.1422605 6.8898384.1684557.6816841 1.2184963.3930633 1.0511636-.2897438-.5952102-2.4111627-1.5812376-4.6460084-2.8738544-6.6326627 8.8776158-1.4678107 18.5447272 5.3838444 17.6126057 14.9465134-.9747971-.3369115-2.0147303-.5772416-3.1242919-.6917915-.6985296-.0718744-.6917914 1.0185955 0 1.0893469 9.8321981 1.0118573 13.9088262 12.3455572 9.4110588 20.3921248-4.8560165 7.8073605-15.6955797 6.5854951-23.5995214 6.6012176-8.6518851.0168456-17.3352152.2481914-25.9837312-.001123-4.0597825-.116796-7.9825544-.8748467-11.39659006-3.1613521-3.20739665-2.1472487-5.4287659-5.5938525-6.50463635-9.2493413C-.52764035 41.8192868 3.51866572 34.031018 9.9772575 30.5990137m4.7470818 31.5012171c4.752697.9163991 9.8142295.5064902 14.6264475.4975059 5.3793522-.0101074 10.7587044-.0202147 16.1380567-.030322 8.3486648-.0157226 19.4285581 1.0781165 24.5406273-7.1402759 4.2304843-7.5681534 1.4127818-17.5508386-6.1890627-20.93006 1.1634674-10.5880027-9.4346426-18.2740751-19.3252386-16.3323423-4.4651993-6.0913583-11.9648473-9.48630233-19.9125876-7.6804572-5.8543973 1.3308001-9.7086638 5.667973-12.4825678 10.7418589-1.4082897 2.5762493-2.0798665 5.3546454-2.15061786 8.1566253-6.7157675 3.24558-10.80025686 10.5610498-9.82658288 17.9854543 1.00511905 7.6546273 7.22562677 13.313616 14.58152594 14.732013"/></svg>