<?xml version="1.0" encoding="utf-8"?>
<!-- Generator: Adobe Illustrator 24.3.0, SVG Export Plug-In . SVG Version: 6.00 Build 0)  -->
<svg version="1.1" id="Layer_1" xmlns="http://www.w3.org/2000/svg" xmlns:xlink="http://www.w3.org/1999/xlink" x="0px" y="0px"
	 viewBox="0 0 100 100" style="enable-background:new 0 0 100 100;" xml:space="preserve">
<style type="text/css">
	.st0{fill-rule:evenodd;clip-rule:evenodd;fill:#9EC4FF;}
</style>
<g id="back-icon">
	<g>
		<g>
			<path id="Path" class="st0" d="M1.7,86C3.4,75.9,3.5,65.8,3,55.7c-0.2-4.5-0.5-8.9-0.7-13.4C2,37.5,1.6,32.6,3,28
				c1.7-5.8,7.2-8.6,12.9-8.8c4.4-0.1,8.5,0.6,12.7-0.9c2.9-1,4.6-3.4,6.2-5.8C36.7,9.6,38.4,8,42,7.6c2.6-0.3,5.1-0.5,7.7-0.7
				c2.1,0.2,4.2,0.4,6.4,0.6c3.7,0.4,5.9,1.1,8,4.2c1.8,2.7,3.5,5.5,6.7,6.6c3.8,1.3,7.6,1,11.5,0.9C88.8,19,94,21.7,96.4,28
				c1.5,4,0.9,8.9,0.7,13.1c-0.2,4.8-0.6,9.7-0.8,14.5c-0.5,10.1-0.3,20.3,1.3,30.3c0.2,1.1,1.9,0.7,1.7-0.5
				c-1.9-11.6-1.6-23.3-1-34.9c0.5-8.7,2.8-19.6-2.4-27.2C90.1,14.9,80.5,19,72.2,17c-5-1.2-5.7-6.5-9.4-9.2
				c-3.3-2.4-8.3-2.2-12.4-2.5c-0.1-0.1-0.3-0.1-0.5-0.1c-0.1,0-0.2,0-0.4,0c-0.1,0-0.2,0-0.4,0s-0.4,0-0.5,0.1
				c-3.9,0.3-8.3,0.2-11.7,2c-3.7,2-4.6,6.9-8.3,9.1C24,19.1,17.9,17,13,17.7c-4,0.6-7.5,2.4-9.8,5.8c-5.1,7.4-3,17.6-2.5,26
				c0.9,11.9,1.3,24-0.7,36C-0.2,86.6,1.6,87.1,1.7,86"/>
			<path id="Path_1_" class="st0" d="M15.5,85.8c-0.4,0.4-0.4,1,0.2,1.3c21.4,10.7,46.3,10.7,67.7,0c0.6-0.3,0.6-0.9,0.3-1.3
				c-0.5-6.6-3.5-12.9-4.9-19.4c-1.7-7.8-2.6-16.6-0.4-24.4c0.3-1.1-1.4-1.6-1.7-0.5c-2,7-1.4,14.4-0.3,21.5
				c1.2,7.7,5.1,15.1,5.6,22.8c-20.4,9.9-44.1,9.9-64.6,0c0.3-3.9,1.6-7.6,2.8-11.3c1.2-3.8,2.1-7.6,2.8-11.5
				c1.2-7.1,1.6-14.5-0.3-21.5c-0.3-1.1-2.1-0.6-1.7,0.5c2.2,7.9,1.2,16.5-0.4,24.4C19.2,73,16,79.2,15.5,85.8"/>
			<path id="Shape" class="st0" d="M47.5,49.1c0.9-0.2,1.8-0.2,2.8-0.3c1,0,1.9,0.1,2.8,0.3c1.1,0.2,1.4,0.8,1.8,1.8
				c0.1,0.2,0.2,0.3,0.3,0.4c0.1,0.1,0.3,0.3,0.5,0.3c0.4,0.1,0.8,0.1,1.1,0.3l0,0c-1,0.2-1.4,1.2-1.6,2.1c0,0.1,0,0.2,0,0.3
				c0,0.3-0.1,0.5-0.1,0.8s-0.1,0.4-0.2,0.6c-0.1-0.1-0.3-0.1-0.4-0.2c-1.1-0.5-2.4-0.6-3.6-0.6c-0.1,0-0.2,0-0.3,0s-0.2,0-0.4,0
				c-0.1,0-0.2,0-0.4,0c-0.1,0-0.2,0-0.3,0c-1.2,0.1-2.5,0.2-3.6,0.6c-0.2,0.1-0.3,0.1-0.4,0.2c-0.1-0.1-0.1-0.2-0.1-0.3
				c-0.1-0.3-0.1-0.7-0.2-1.1c0-0.1,0-0.2,0-0.4c-0.2-0.8-0.6-1.8-1.5-2.1c-0.1,0-0.1,0-0.2,0c0.4-0.2,0.8-0.3,1.2-0.3
				c0.2,0,0.4-0.2,0.5-0.3s0.2-0.2,0.3-0.4C46.1,49.9,46.3,49.4,47.5,49.1 M42.3,53.5c0.3,0.1,0.5,0.2,0.8,0.2
				c0.2,0,0.3,0.2,0.3,0.4c0,0.1,0,0.2,0,0.2c0.2,1.1,0.3,2.1,0.9,2.8c-0.2,0.4-0.3,0.7-0.5,1.1c-0.4,1.1,1.3,1.5,1.7,0.5
				c0.1-0.3,0.3-0.6,0.4-0.9c1.4,0.1,2.7-0.9,4-0.9H50c1.5-0.1,2.7,0.7,4.2,0.8c0.2,0.3,0.3,0.6,0.5,1c0.4,1.1,2.2,0.6,1.7-0.5
				c-0.2-0.4-0.3-0.7-0.5-1.1c0.7-0.7,0.7-2,0.9-2.9c0-0.1,0-0.2,0-0.2c0-0.1,0.1-0.3,0.2-0.4c0.2-0.2,0.7-0.2,1-0.3
				c0.6-0.3,1-0.9,0.8-1.6c-0.3-1.2-1.5-1.7-2.6-1.9c-0.4-0.9-0.8-1.8-1.9-2.2c-1.1-0.5-2.4-0.6-3.6-0.6c-0.1,0-0.2,0-0.3,0
				s-0.2,0-0.4,0c-0.1,0-0.2,0-0.4,0c-0.1,0-0.2,0-0.3,0c-1.2,0.1-2.5,0.2-3.6,0.6c-1,0.4-1.5,1.3-1.9,2.2c-1.1,0.2-2.3,0.7-2.6,1.9
				C41.4,52.5,41.8,53.1,42.3,53.5 M47.5,37.9c0.9-0.2,1.8-0.2,2.8-0.3c1,0,1.9,0.1,2.8,0.3c1.1,0.2,1.4,0.8,1.8,1.8
				c0.1,0.2,0.2,0.3,0.3,0.4c0.1,0.1,0.3,0.3,0.5,0.3c0.4,0.1,0.8,0.1,1.1,0.3l0,0c-1,0.2-1.4,1.2-1.6,2.1c0,0.1,0,0.2,0,0.3
				c0,0.3-0.1,0.5-0.1,0.8c-0.2,1.1-1,0.9-1.8,0.7c-1-0.3-2-0.7-3-0.6c-1.1-0.1-2,0.3-3.1,0.6c-0.6,0.2-1.5,0.5-1.7-0.4
				c-0.1-0.3-0.1-0.7-0.2-1.1c0-0.1,0-0.2,0-0.4c-0.2-0.8-0.6-1.8-1.5-2.1c-0.1,0-0.1,0-0.2,0c0.4-0.2,0.8-0.3,1.2-0.3
				c0.2,0,0.4-0.2,0.5-0.3s0.2-0.2,0.3-0.4C46.1,38.7,46.3,38.1,47.5,37.9 M42.3,42.2c0.3,0.1,0.5,0.2,0.8,0.2
				c0.2,0,0.3,0.2,0.3,0.4c0,0.1,0,0.2,0,0.2c0.3,1.5,0.3,2.9,2,3.4c1.6,0.5,3.1-0.8,4.7-0.8h0.1c1.7-0.1,3.1,1,4.9,0.8
				c1.7-0.2,1.7-2.2,2-3.4c0-0.1,0-0.2,0-0.2c0-0.1,0.1-0.3,0.2-0.4c0.2-0.2,0.7-0.2,1-0.3c0.6-0.3,1-0.9,0.8-1.6
				c-0.3-1.2-1.5-1.7-2.6-1.9c-0.4-0.9-0.8-1.8-1.9-2.2c-1.1-0.5-2.4-0.6-3.6-0.6c-0.1,0-0.2,0-0.3,0s-0.2,0-0.4,0
				c-0.1,0-0.2,0-0.4,0c-0.1,0-0.2,0-0.3,0c-1.2,0.1-2.5,0.2-3.6,0.6c-1,0.4-1.5,1.3-1.9,2.2c-1.1,0.2-2.3,0.7-2.6,1.9
				C41.4,41.3,41.8,41.9,42.3,42.2"/>
			<path id="Shape_1_" class="st0" d="M47.5,60.4c0.9-0.2,1.8-0.2,2.8-0.3c1,0,1.9,0.1,2.8,0.3c1.1,0.2,1.4,0.8,1.8,1.8
				c0.1,0.2,0.2,0.3,0.3,0.4c0.1,0.1,0.3,0.3,0.5,0.3c0.4,0.1,0.8,0.1,1.1,0.3l0,0c-1,0.2-1.4,1.2-1.6,2.1c0,0.1,0,0.2,0,0.3
				c0,0.3-0.1,0.5-0.1,0.8c-0.2,1.1-1,0.9-1.8,0.7c-1-0.3-2-0.7-3-0.6c-1.1-0.1-2,0.3-3.1,0.6c-0.6,0.2-1.5,0.5-1.7-0.4
				c-0.1-0.3-0.1-0.7-0.2-1.1c0-0.1,0-0.2,0-0.4c-0.2-0.8-0.6-1.8-1.5-2.1c-0.1,0-0.1,0-0.2,0c0.4-0.2,0.8-0.3,1.2-0.3
				c0.2,0,0.4-0.2,0.5-0.3s0.2-0.2,0.3-0.4C46.1,61.2,46.3,60.7,47.5,60.4 M42.3,64.7c0.3,0.1,0.5,0.2,0.8,0.2
				c0.2,0,0.3,0.2,0.3,0.4c0,0.1,0,0.2,0,0.2c0.3,1.5,0.3,2.9,2,3.4c1.6,0.5,3.1-0.8,4.7-0.8h0.1c1.7-0.1,3.1,1,4.9,0.8
				c1.7-0.2,1.7-2.2,2-3.4c0-0.1,0-0.2,0-0.2c0-0.1,0.1-0.3,0.2-0.4c0.2-0.2,0.7-0.2,1-0.3c0.6-0.3,1-0.9,0.8-1.6
				c-0.3-1.1-1.3-1.6-2.3-1.9c0.3-0.5,0.1-1.4-0.7-1.4c-0.1,0-0.2,0-0.2,0c-0.3-0.4-0.7-0.7-1.2-0.9c-1.1-0.5-2.4-0.6-3.6-0.6
				c-0.1,0-0.2,0-0.3,0s-0.2,0-0.4,0c-0.1,0-0.2,0-0.4,0c-0.1,0-0.2,0-0.3,0c-1.2,0.1-2.5,0.2-3.6,0.6c-0.5,0.2-0.9,0.5-1.2,0.9
				c-0.1,0-0.1,0-0.2,0c-0.8,0-1.1,0.9-0.7,1.4c-1,0.3-2.1,0.7-2.3,1.9C41.4,63.8,41.8,64.4,42.3,64.7 M47.5,71.7
				c0.9-0.2,1.8-0.2,2.8-0.3c1,0,1.9,0.1,2.8,0.3c1.1,0.2,1.4,0.8,1.8,1.8c0.1,0.2,0.2,0.3,0.3,0.4s0.3,0.3,0.5,0.3
				c0.4,0.1,0.8,0.1,1.1,0.3l0,0c-1,0.2-1.4,1.2-1.6,2.1c0,0.1,0,0.2,0,0.3c0,0.3-0.1,0.5-0.1,0.8c-0.2,1.1-1,0.9-1.8,0.7
				c-1-0.3-2-0.7-3-0.6c-1.1-0.1-2,0.3-3.1,0.6c-0.6,0.2-1.5,0.5-1.7-0.4c-0.1-0.3-0.1-0.7-0.2-1.1c0-0.1,0-0.2,0-0.4
				c-0.2-0.8-0.6-1.8-1.5-2.1c-0.1,0-0.1,0-0.2,0c0.4-0.2,0.8-0.3,1.2-0.3c0.2,0,0.4-0.2,0.5-0.3c0.1-0.1,0.2-0.2,0.3-0.4
				C46.1,72.5,46.3,71.9,47.5,71.7 M42.3,76c0.3,0.1,0.5,0.2,0.8,0.2c0.2,0,0.3,0.2,0.3,0.4c0,0.1,0,0.2,0,0.2
				c0.3,1.5,0.3,2.9,2,3.4c1.6,0.5,3.1-0.8,4.7-0.8h0.1c1.7-0.1,3.1,1,4.9,0.8c1.7-0.2,1.7-2.2,2-3.4c0-0.1,0-0.2,0-0.2
				c0-0.1,0.1-0.3,0.2-0.4c0.2-0.2,0.7-0.2,1-0.3c0.6-0.3,1-0.9,0.8-1.6c-0.3-1.2-1.5-1.7-2.6-1.9c-0.4-0.9-0.8-1.8-1.9-2.2
				c-1.1-0.5-2.4-0.6-3.6-0.6c-0.1,0-0.2,0-0.3,0s-0.2,0-0.4,0c-0.1,0-0.2,0-0.4,0c-0.1,0-0.2,0-0.3,0c-1.2,0.1-2.5,0.2-3.6,0.6
				c-1,0.4-1.5,1.3-1.9,2.2c-1.1,0.2-2.3,0.7-2.6,1.9C41.4,75.1,41.8,75.7,42.3,76 M47.5,82.9c0.9-0.2,1.8-0.2,2.8-0.3
				c1,0,1.9,0.1,2.8,0.3c1.1,0.2,1.4,0.8,1.8,1.8c0.4,1.1,2.2,0.6,1.7-0.5c-0.5-1.2-0.9-2.2-2.1-2.8c-1.1-0.5-2.4-0.6-3.6-0.6
				c-0.1,0-0.2,0-0.3,0s-0.2,0-0.4,0c-0.1,0-0.2,0-0.4,0c-0.1,0-0.2,0-0.3,0c-1.2,0.1-2.5,0.2-3.6,0.6c-1.2,0.5-1.6,1.6-2.1,2.8
				c-0.4,1.1,1.3,1.5,1.7,0.5C46.1,83.7,46.3,83.2,47.5,82.9 M44.6,85.8c-1.2,0-1.2,1.8,0,1.8C45.8,87.6,45.8,85.8,44.6,85.8
				 M55.9,87.6c1.2,0,1.2-1.8,0-1.8C54.7,85.8,54.7,87.6,55.9,87.6 M43.9,16.6c-1.2,0-1.2,1.8,0,1.8S45.1,16.6,43.9,16.6 M56.6,16.6
				c-1.2,0-1.2,1.8,0,1.8S57.8,16.6,56.6,16.6 M47.5,26.6c0.9-0.2,1.8-0.2,2.8-0.3c1,0,1.9,0.1,2.8,0.3c1.1,0.2,1.4,0.8,1.8,1.8
				c0.1,0.2,0.2,0.3,0.3,0.4s0.3,0.3,0.5,0.3c0.4,0.1,0.8,0.1,1.1,0.3l0,0c-1,0.2-1.4,1.2-1.6,2.1c0,0.1,0,0.2,0,0.3
				c0,0.3-0.1,0.5-0.1,0.8c-0.2,1.1-1,0.9-1.8,0.7c-1-0.3-2-0.7-3-0.6c-1.1-0.1-2,0.3-3.1,0.6c-0.6,0.2-1.5,0.5-1.7-0.4
				c-0.1-0.3-0.1-0.7-0.2-1.1c0-0.1,0-0.2,0-0.4c-0.2-0.8-0.6-1.8-1.5-2.1c-0.1,0-0.1,0-0.2,0c0.4-0.2,0.8-0.3,1.2-0.3
				c0.2,0,0.4-0.2,0.5-0.3c0.1-0.1,0.2-0.2,0.3-0.4C46.1,27.4,46.3,26.9,47.5,26.6 M41.5,29.3c-0.2,0.7,0.2,1.3,0.8,1.6
				c0.3,0.1,0.5,0.2,0.8,0.2c0.2,0,0.3,0.2,0.3,0.4c0,0.1,0,0.2,0,0.2c0.3,1.5,0.3,2.9,2,3.4c1.6,0.5,3.1-0.8,4.7-0.8h0.1
				c1.7-0.1,3.1,1,4.9,0.8c1.7-0.2,1.7-2.2,2-3.4c0-0.1,0-0.2,0-0.2c0-0.1,0.1-0.3,0.2-0.4c0.2-0.2,0.7-0.2,1-0.3
				c0.6-0.3,1-0.9,0.8-1.6c-0.3-1.2-1.5-1.7-2.6-1.9c-0.4-0.9-0.8-1.8-1.9-2.2c-1.1-0.5-2.4-0.6-3.6-0.6c-0.1,0-0.2,0-0.3,0
				s-0.2,0-0.4,0c-0.1,0-0.2,0-0.4,0c-0.1,0-0.2,0-0.3,0c-1.2,0.1-2.5,0.2-3.6,0.6c-1,0.4-1.5,1.3-1.9,2.2
				C43,27.7,41.8,28.1,41.5,29.3 M55.3,20c-0.1,0.4-0.1,0.9-0.2,1.3c-0.2,1.1-1,0.9-1.8,0.7c-1-0.3-2-0.7-3-0.6
				c-1.1-0.1-2,0.3-3.1,0.6c-0.6,0.2-1.5,0.5-1.7-0.4c-0.1-0.5-0.2-1.1-0.3-1.6c-0.2-1.1-1.9-0.7-1.7,0.5c0.3,1.5,0.3,2.9,2,3.4
				c1.6,0.5,3.1-0.8,4.7-0.8h0.1c1.7-0.1,3.1,1,4.9,0.8c1.7-0.2,1.7-2.2,2-3.4C57.2,19.3,55.5,18.8,55.3,20"/>
		</g>
	</g>
</g>
</svg>
