<svg xmlns="http://www.w3.org/2000/svg" width="72" height="72"><g fill="none" fill-rule="evenodd"><path d="M0 0h72v72H0z"/><g fill="#9ec4ff"><path d="M15.84806531 22.6240163c-.01616327.9198368 1.40914289.9183674 1.42677549 0 .1190204-6.5681632.0058776-13.13044895-.32914284-19.68979589L40.6528 3.03560816c.0396735 2.84620408.0808163 5.69387755.1190204 8.54008164.0146939.9183673 1.4385306.9198367 1.4267755 0a8263.7327302 8263.7327302 0 01-.1190204-8.53420409l19.5002449.08375511c.1102041 4.21861224.2380408 8.43722448.2323587 12.65730608-.2161954 18.0132245-.2720322 36.0279184-.1721138 54.0411429-4.0187755-.0352653-8.0404898-.0573061-12.0607347-.0690612.0279184-2.1688164.1293061-4.3346939.3188572-6.4961633.0822857-.916898-1.3459592-.9080816-1.4253062 0-.189551 2.16-.2924081 4.3229388-.3188571 6.4902857-6.7768163-.0146939-13.5506939.0117551-20.3289796.0617143-.0337959-5.4661224-.1072653-10.9307755-.2248163-16.3954286-.0191021-.9183673-1.4444082-.9198367-1.4253062 0 .1175511 5.4675919.1910205 10.9366531.2262858 16.4057143-3.6044082.0293878-7.2102858.0690612-10.81469391.1160817-.14840817-2.1453062-.30269388-4.3346939-.05289796-6.4653062.1072653-.9124898-1.31804082-.9022041-1.42530613 0-.24979591 2.1379592-.09697959 4.3332245.05436735 6.4844082-1.76914286.0249796-3.53828571.0426122-5.30595918.072-.01763266-3.5426939-.08669388-7.082449-.21453061-10.6236735.01763265-.064653.03085714-.1351836.03085714-.2145306-.08081633-18.765551-.16457143-37.531102-.24685714-56.29665305 2.36571428.01028572 4.72995918.02057143 7.09420408.03085714.3350204 6.56522449.44669387 13.13044901.32767347 19.70008161M7.24626939 58.9355265c-.0249796.0764082-.04114286.1601633-.0367347.2556735.144 3.8483265.22040817 7.6981224.23069388 11.5493878 0 .2013061.072.3570612.1792653.470204.11461225.1528164.29534695.2586123.54661225.2557332 17.96326528-.3027536 35.92946938-.3732842 53.89273468-.2131209.223347.0014694.3893878-.0808163.504-.2057143.2762449-.072.5098776-.2894694.5069388-.6612245-.1057959-18.2013061-.0484898-36.4026122.1692421-54.602449.0070844-4.4933877-.1413237-8.98383671-.2544666-13.47575508-.0161633-.61567346-.6582857-.81697959-1.0755918-.60685714-18.0558368-.07787755-36.1116735-.1557551-54.17044901-.23216872-.41877551-.00146393-.64506123.293883-.68032653.61567893-.03820409.08522449-.05877552.18367347-.05737976.29534693.08088996 18.85224488.16464506 37.70448978.24546139 56.55526528"/><path d="M23.8435918 41.0867265c.2894694-9.0029387.3982041-18.0088163.3247347-27.0161632-.0073469-.9183674-1.432653-.9198368-1.4253061 0 .0734694 9.0073469-.0337959 18.0132245-.3247347 27.0161632-.0308571.9198368 1.394449.916898 1.4253061 0M29.2074449 35.6971592c.6200816-1.3239184 2.0586122-2.0174694 3.4222041-2.2995919.0808163.033796.1675102.0558368.2703673.0587756 4.9988572.1498775 3.3737143 8.1448163-1.6633469 6.9795918-2.0747755-.4804898-2.8520816-2.9843265-2.0292245-4.7387755m2.8785306 6.3139592c6.192.6641632 7.3337143-9.6906123.8933878-9.9742041-.1307755-.0690612-.2894694-.0999184-.465796-.0690612-2.3216326.3967347-4.8533877 2.0968163-5.0664489 4.6564898-.2439184 2.9226122 1.8102857 5.0840816 4.6388571 5.3867755"/><path d="M36.9389224 30.2342694c3.1342041 2.4729796 1.977796 8.208 1.9307756 11.7462857-.0499592 4.1289796-.1013878 8.2594286-.1542858 12.3884082-.0117551.9198367 1.4135511.9183673 1.4253062 0 .0661224-5.256.1322449-10.512.1968979-15.768.0426123-3.2987755.4922449-7.1000817-2.3906939-9.3761633-.7141224-.5613061-1.7294693.4408163-1.008 1.0094694M48.6868245 41.6571429c-.0396735-7.5791021-.0822857-15.1596735-.1204898-22.7387756-.0044082-.9198367-1.4326531-.9198367-1.4253061 0 .0396734 7.5791021.0808163 15.1596735.1219592 22.7387756.0044081.9183673 1.4297142.9198367 1.4238367 0M59.7000327 59.8350857c.0396734-7.651102.0822857-15.3036735.1219693-22.9547755.004398-.9198367-1.4223775-.9198367-1.4267857 0-.0396734 7.651102-.0808163 15.3036735-.1219592 22.9547755-.0058775.9198367 1.4223674.9198367 1.4267756 0"/></g></g></svg>