<?xml version="1.0" encoding="utf-8"?>
<!-- Generator: Adobe Illustrator 24.3.0, SVG Export Plug-In . SVG Version: 6.00 Build 0)  -->
<svg version="1.1" id="Layer_1" xmlns="http://www.w3.org/2000/svg" xmlns:xlink="http://www.w3.org/1999/xlink" x="0px" y="0px"
	 viewBox="0 0 100 100" style="enable-background:new 0 0 100 100;" xml:space="preserve">
<style type="text/css">
	.st0{fill:#9EC4FF;}
</style>
<g id="Category-Mattress">
	<g id="Category-Mattress---Desktop" transform="translate(-557.000000, -1110.000000)">
		<g id="Section-2" transform="translate(90.000000, 950.000000)">
			<g id="icon-row" transform="translate(49.000000, 160.000000)">
				<g id="icon-3" transform="translate(381.000000, 0.000000)">
					<g id="energy-icon" transform="translate(37.000000, 0.000000)">
						<g>
							<path id="Shape" class="st0" d="M52.2,44.7c-1,2-1.7,3.6,0.7,4.8c0.1,0,0.1,0.1,0.2,0.1c3.6,1,7.2,2,10.7,3
								c1.5,0.4,0.2,1.5-0.4,2.2c-0.1,0.1-0.2,0.2-0.3,0.3c-0.1,0-0.1,0.1-0.2,0.1c-0.6,0.7-1.3,1.5-1.9,2.2c-1.5,1.6-3,3.1-4.5,4.7
								c-1.2,1.2-2.4,2.5-3.6,3.7c-3,3-6.1,5.9-9,8.9l-0.1,0.1l-0.1,0.1c-0.2,0.2-0.4,0.4-0.6,0.6c-0.1,0-0.1,0.1-0.2,0.1
								c-0.7,0.6-1.3,1.3-2,1.9c-0.2,0.2-2.3,2.4-2.6,1.8c-0.2-0.5,0.3-1.4,0.5-1.8c0.1-0.3,0.3-0.6,0.4-0.9c0,0,0,0,0-0.1
								c2-4.2,4-8.5,6-12.7c1-2,1.7-3.6-0.7-4.8c-0.1,0-0.1-0.1-0.2-0.1c-3.6-1-7.2-2-10.7-3c-1.5-0.4-0.2-1.5,0.4-2.2
								c0.1-0.1,0.2-0.2,0.3-0.3c0.1,0,0.1-0.1,0.2-0.1c0.6-0.7,1.3-1.5,1.9-2.2c1.5-1.6,3-3.1,4.5-4.7c1.2-1.2,2.4-2.5,3.6-3.7
								c3-3,6.1-5.9,9-8.9l0.1-0.1l0.1-0.1c0.2-0.2,0.4-0.4,0.6-0.6c0.1,0,0.1-0.1,0.2-0.1c1.3-1.3,2.6-2.7,4.1-3.8
								c0.8-0.6,0.3,1.2,0.2,1.4c-0.2,0.4-0.4,0.9-0.6,1.3c0,0.1-0.1,0.1-0.1,0.2C56.2,36.2,54.2,40.5,52.2,44.7 M59.1,33.6
								c0.8-1.7,2.4-4,1-5.7c-0.7-0.9-2-0.3-2.7,0.2c-1.3,1.1-2.5,2.4-3.7,3.5c-0.1,0-0.1,0.1-0.2,0.1c-0.3,0.3-0.6,0.7-1,1
								C48.9,36,45.4,39.5,42,43.1c-2,2-4,4-5.9,6.1c-1.6,1.6-3.3,3.2-4.4,5.1c-0.7,1.1-0.1,2.1,0.8,2.7c1.3,0.9,3.6,1.1,5.1,1.5
								c2.1,0.6,4.2,1.2,6.3,1.7c1.8,1-1.2,5.5-1.9,6.9c-1.1,2.4-2.3,4.8-3.4,7.2c-0.8,1.7-2.6,4.3-1.2,6.1c0.7,0.9,2,0.3,2.7-0.2
								c1.3-1.1,2.5-2.4,3.7-3.5c0.1,0,0.1-0.1,0.2-0.1c0.3-0.3,0.6-0.7,1-1c3.6-3.3,7.1-6.8,10.5-10.4c2-2,4-4,5.9-6.1
								c1.6-1.6,3.3-3.2,4.4-5.1c0.7-1.1,0.1-2.1-0.8-2.7c-1.3-0.9-3.6-1.1-5.1-1.5c-2.1-0.6-4.2-1.2-6.3-1.7
								c-1.8-1,1.2-5.5,1.9-6.9C56.7,38.7,57.9,36.2,59.1,33.6"/>
							<path id="Path" class="st0" d="M13.5,74.4c5,7.4,11.8,13.8,20.2,17.3c9.6,4,20.1,4,29.8,0.6c0.1,0,0.2,0,0.3-0.1
								c7.2-2.9,13.6-7.2,18.6-13c0.1,0,0.1-0.1,0.2-0.2c0.4-0.5,0.8-1,1.1-1.4c0.2-0.2,0.3-0.4,0.5-0.6c0.1-0.1,0.1-0.1,0.1-0.2
								c7.6-10.9,8.8-26.4,4.4-38.6c-5-13.7-18.2-23.9-32.6-26.1c-1-0.1-1.4,1.3-0.4,1.5C69.8,15.8,82,25.4,87.2,38.7
								c4.7,11.9,3.1,27.7-4.7,38.1c-4.8,6.1-11.2,10.7-18.4,13.7H64c-9.1,3.4-19,3.8-28.2,0.5c-8.6-3.1-15.8-9.7-20.9-17.1
								c0-0.1,0-0.1-0.1-0.2c-7-12.5-6.9-28.1,0.3-40.5c6.3-10.8,18.2-18,30.6-19.3c-1.5,2.3-5.1,7.3-5.5,7.9
								c-0.6,0.8,0.7,1.5,1.3,0.8c1.5-2.1,3-4.2,4.4-6.3c0.6-0.9,2.4-2.7,2-3.9c-0.3-1.2-2.3-2.1-3.3-2.9c-2.1-1.6-4.3-3.1-6.5-4.5
								c-0.8-0.5-1.6,0.8-0.8,1.3c2.9,1.9,5.8,3.9,8.5,6.1c-13.2,1.3-25.1,8.8-32.1,20.1C6,45,6.2,61.4,13.2,74.2
								C13.4,74.2,13.4,74.3,13.5,74.4"/>
						</g>
					</g>
				</g>
			</g>
		</g>
	</g>
</g>
</svg>
