<svg xmlns="http://www.w3.org/2000/svg" width="20.564" height="24" viewBox="0 0 20.564 24"><path d="M17.229,24H13.737a1.072,1.072,0,0,1-.964-.653L7.824,14.322l.912-1.608.013-.023L15.579.653A1.087,1.087,0,0,1,16.517,0h3.518A.524.524,0,0,1,20.5.23a.53.53,0,0,1-.01.525l-7.712,13.55v.016l4.906,8.923a.522.522,0,0,1,.023.524A.531.531,0,0,1,17.229,24ZM4.01,16.817H.524a.512.512,0,0,1-.451-.241.537.537,0,0,1,0-.53l3.7-6.5c.005,0,.007,0,.008,0s0-.007-.008-.013L1.413,5.485a.517.517,0,0,1-.032-.522.539.539,0,0,1,.486-.233H5.355a1.114,1.114,0,0,1,.964.653L8.713,9.534c-.056.1-.5.885-1.308,2.306L4.958,16.148A1.128,1.128,0,0,1,4.01,16.817Z" transform="translate(-0.001)" fill="#9ec4ff"/></svg>