<?xml version="1.0" encoding="UTF-8"?>
<svg width="104px" height="104px" viewBox="0 0 104 104" version="1.1" xmlns="http://www.w3.org/2000/svg" xmlns:xlink="http://www.w3.org/1999/xlink">
    <!-- Generator: Sketch 61 (89581) - https://sketch.com -->
    <title>Artboard</title>
    <desc>Created with Sketch.</desc>
    <g id="Artboard" stroke="none" stroke-width="1" fill="none" fill-rule="evenodd">
        <g id="Sig.Swiss_Label" transform="translate(-0.000000, 0.000000)">
            <polygon id="Fill-1" fill="#DB3C36" points="0 80.2807018 94.877193 80.2807018 94.877193 0 0 0"></polygon>
            <polyline id="Fill-2" fill="#DB3C36" points="22.3452381 83.0175439 16.4210526 83.0175439 24.1285503 103.087719 28.3154084 103.087719 32.4676845 91.9269114 36.7037052 103.087719 41.0391726 103.087719 49.2631579 83.0175439 43.3965468 83.0175439 39.0829502 94.3999091 34.6542047 83.0175439 31.2027292 83.0175439 26.543499 94.4574467 22.3452381 83.0175439"></polyline>
            <polygon id="Fill-3" fill="#DB3C36" points="50.1754386 103.087719 55.6491228 103.087719 55.6491228 83.0175439 50.1754386 83.0175439"></polygon>
            <path d="M15.1723242,84.0040423 C13.2418806,82.9119952 10.2401414,82.1052632 8.05045115,82.1052632 C3.69969542,82.1052632 0,84.0227711 0,88.4196503 C0,92.6152947 3.19825514,93.8159288 6.74224015,94.821704 C7.95239623,95.1665924 9.92466033,95.7888261 9.92466033,97.3694153 C9.92466033,98.8924235 8.75916695,99.4770004 7.4336999,99.4770004 C5.50325633,99.4770004 3.65381465,98.2367171 2.24206739,97.0010163 L0,101.414632 C2.21872098,102.966331 4.94010032,104 7.67731462,104 C9.86700485,104 12.1013578,103.643954 13.8011794,102.207218 C15.5300318,100.741591 16.4210526,98.9723197 16.4210526,96.8169164 C16.4210526,93.3110488 13.7148992,91.3445273 10.6894075,90.453715 L9.24883252,90.0225546 C8.26929836,89.7063571 6.3638253,89.3158422 6.3638253,88.0512513 C6.3638253,86.8442414 8.20149227,86.5188787 9.23888492,86.5188787 C10.6218044,86.5188787 12.1981946,87.0050299 13.2353843,87.8671514 L15.1723242,84.0040423" id="Fill-4" fill="#DB3C36"></path>
            <path d="M76.2951312,84.0040596 C74.3646877,82.9120026 71.3629484,82.1052632 69.1732582,82.1052632 C64.8225024,82.1052632 61.122807,84.0227885 61.122807,88.4197077 C61.122807,92.6153904 64.3210622,93.8160354 67.8648442,94.8218197 C69.0750002,95.166512 71.0474673,95.7889507 71.0474673,97.3695543 C71.0474673,98.8925763 69.881771,99.4771585 68.5565069,99.4771585 C66.6260633,99.4771585 64.7766217,98.2368639 63.3648744,97.0011519 L61.122807,101.414808 C63.341325,102.966521 66.0629073,104 68.8001216,104 C70.9898119,104 73.2239618,103.64415 74.9239864,102.207401 C76.6526358,100.741761 77.5438596,98.9722739 77.5438596,96.8170503 C77.5438596,93.3111508 74.8375032,91.3446114 71.8122145,90.4535917 L70.3716395,90.0226267 C69.3921054,89.7064262 67.4864293,89.3157085 67.4864293,88.0513054 C67.4864293,86.8442845 69.3242993,86.5187196 70.3614889,86.5187196 C71.7446114,86.5187196 73.3210016,87.0050745 74.3581913,87.8672038 L76.2951312,84.0040596" id="Fill-5" fill="#DB3C36"></path>
            <path d="M93.6284491,84.0040596 C91.6979817,82.9120026 88.6962053,82.1052632 86.506488,82.1052632 C82.1556785,82.1052632 78.4561404,84.0227885 78.4561404,88.4197077 C78.4561404,92.6153904 81.654232,93.8160354 85.1982608,94.8218197 C86.4084319,95.166512 88.3807204,95.7889507 88.3807204,97.3695543 C88.3807204,98.8925763 87.2150096,99.4771585 85.8897291,99.4771585 C83.9592617,99.4771585 82.1097972,98.2368639 80.6980324,97.0011519 L78.4561404,101.414808 C80.6746858,102.966521 83.3960987,104 86.1333469,104 C88.3230642,104 90.5574447,103.64415 92.2572874,102.207401 C93.9861612,100.741761 94.877193,98.9722739 94.877193,96.8170503 C94.877193,93.3111508 92.1710061,91.3446114 89.14568,90.4535917 L87.7048842,90.0226267 C86.7253379,89.7064262 84.8198413,89.3157085 84.8198413,88.0513054 C84.8198413,86.8442845 86.657531,86.5187196 87.6949365,86.5187196 C89.0778731,86.5187196 90.6542828,87.0050745 91.6914852,87.8672038 L93.6284491,84.0040596" id="Fill-6" fill="#DB3C36"></path>
            <path d="M7.56486649,62.8436744 L7.56486649,64.9585413 L4.92989892,63.9115906 L4.92989892,63.890814 L7.56486649,62.8436744 Z M10.0350877,67.5087719 L10.0350877,66.0056809 L8.57126013,65.3733174 L8.57126013,62.4394755 L10.0350877,61.8175003 L10.0350877,60.2105263 L3.64912281,63.0510624 L3.64912281,64.6890124 L10.0350877,67.5087719 L10.0350877,67.5087719 Z" id="Fill-7" fill="#FFFFFE"></path>
            <path d="M10.0350877,59.2982456 L10.0350877,57.2448187 C10.0350877,54.944034 9.37629715,52.9122807 6.8420079,52.9122807 C4.30791338,52.9122807 3.64912281,54.944034 3.64912281,57.2448187 L3.64912281,59.2982456 L10.0350877,59.2982456 Z M4.65551645,57.7932211 L4.65551645,56.9545114 C4.65551645,55.6966457 5.45140089,54.4817296 6.8420079,54.4817296 C8.2326149,54.4817296 9.02869408,55.6966457 9.02869408,56.9545114 L9.02869408,57.7932211 L4.65551645,57.7932211 L4.65551645,57.7932211 Z" id="Fill-8" fill="#FFFFFE"></path>
            <polyline id="Fill-9" fill="#FFFFFE" points="10.0350877 77.5438596 10.0350877 76.2931736 4.78365248 76.2931736 4.76534733 76.2746543 10.0350877 74.51999 10.0350877 73.2694837 4.76534733 71.5148194 4.76534733 71.4961203 10.0350877 71.4961203 10.0350877 70.245614 3.64912281 70.245614 3.64912281 72.336144 8.48888696 73.8852974 8.48888696 73.9039965 3.64912281 75.4533297 3.64912281 77.5438596 10.0350877 77.5438596"></polyline>
            <polyline id="Fill-10" fill="#FFFFFE" points="10.0350877 50.1754386 10.0350877 46.5263158 9.02869408 46.5263158 9.02869408 48.9414122 7.23537383 48.9414122 7.23537383 46.7466777 6.22917493 46.7466777 6.22917493 48.9414122 4.65551645 48.9414122 4.65551645 46.5439099 3.64912281 46.5439099 3.64912281 50.1754386 10.0350877 50.1754386"></polyline>
            <path d="M60.6249997,22.7454988 L79.3876909,22.7454988 C79.3876909,22.7454988 75.9008804,17.7431422 71.9772809,15.0321616 C67.8526931,12.1822748 63.840428,11.3530699 60.6249997,11.3530699 L60.6249997,22.7454988 Z M51.3930009,22.7454988 L32.6303098,22.7454988 C32.6303098,22.7454988 36.1171203,17.7431422 40.0407198,15.0321616 C44.1653076,12.1822748 48.1775727,11.3530699 51.3930009,11.3530699 L51.3930009,22.7454988 Z M46.6533312,78.4561404 L46.6533312,54.5723455 L51.3930009,51.8652128 L51.3930009,27.1154664 L20.0701754,27.1154664 L20.0701754,22.7454988 L22.9003601,22.7454988 C22.9003601,22.7454988 31.2678206,2.73684211 56.256341,2.73684211 C78.965327,2.73684211 89.3103586,22.7454988 89.3103586,22.7454988 L92.1403509,22.7454988 L92.1403509,27.1154664 L60.6249997,27.1154664 L60.6249997,71.2553326 L46.6533312,78.4561404 L46.6533312,78.4561404 Z" id="Fill-11" fill="#FFFFFE"></path>
        </g>
    </g>
</svg>