<svg xmlns="http://www.w3.org/2000/svg" width="280" viewBox="0 0 300 24"><title>SEVEN SUNDAYS</title><path d="M98.3 0l16.3 16-.1-15.2h3.6v23.4h-.1L101.7 8.4l.1 15h-3.7V0h.2zm88.4 0L203 16 202.9.8h3.6v23.4h-.1L190.1 8.4l.1 15h-3.7V0h.2zM8.7.6c1.5 0 2.8.2 3.9.5s2 .8 3 1.3l.2.1-1.4 2.8c-1.9-1-3.7-1.5-5.2-1.5-1.1 0-2 .2-2.7.7-.7.5-1 1.2-1 2.1 0 .9.4 1.6 1.2 2.1.8.6 2 1.1 3.4 1.7 1.1.4 2.1.8 2.9 1.4.8.5 1.5 1.2 2 2.1.5.9.8 2 .8 3.3 0 1.2-.3 2.3-.9 3.3-.6 1-1.5 1.8-2.6 2.3-1.1.6-2.5.9-4 .9-1.4 0-2.7-.2-4-.6C3 22.6 1.9 22 .9 21.4l-.2-.1 1.6-2.8c.8.5 1.7 1 2.8 1.3 1 .4 2 .6 2.9.6 1.1 0 2.1-.3 2.9-.8.8-.5 1.2-1.3 1.2-2.4 0-.9-.3-1.6-1-2.2-.7-.6-1.7-1.1-2.9-1.6-1.3-.5-2.4-.9-3.2-1.4-.9-.5-1.6-1.1-2.2-2-.6-.8-.9-1.8-.9-3.1 0-1.8.6-3.3 1.9-4.5S6.6.7 8.7.6zM146 .6c1.5 0 2.8.2 3.9.5s2 .8 3 1.3l.2.1-1.4 2.8c-1.9-1-3.7-1.5-5.2-1.5-1.1 0-2 .2-2.7.7-.7.5-1 1.2-1 2.1 0 .9.4 1.6 1.2 2.1.8.6 2 1.1 3.4 1.7 1.1.4 2.1.8 2.9 1.4.8.5 1.5 1.2 2 2.1.5.9.8 2 .8 3.3 0 1.2-.3 2.3-.9 3.3-.6 1-1.5 1.8-2.6 2.3-1.1.6-2.5.9-4 .9-1.4 0-2.7-.2-4-.6-1.3-.4-2.4-.9-3.4-1.6l-.2-.1 1.6-2.8c.8.6 1.7 1.1 2.7 1.4 1 .4 2 .6 2.9.6 1.1 0 2.1-.3 2.9-.8s1.2-1.3 1.2-2.4c0-.9-.3-1.6-1-2.2-.7-.6-1.7-1.1-2.9-1.6-1.3-.5-2.4-.9-3.2-1.4-.8-.5-1.6-1.1-2.2-2-.6-.8-.9-1.9-.9-3.2 0-1.8.6-3.3 1.9-4.5 1.3-1.2 3-1.8 5-1.9zm18 .1v14.5c0 .9.2 1.7.7 2.4.5.7 1.1 1.3 1.9 1.8.8.4 1.6.7 2.6.7s1.9-.2 2.7-.7c.8-.4 1.4-1 1.9-1.8.4-.7.7-1.5.7-2.3V.7h3.6v14.6c0 1.6-.4 3.1-1.2 4.3-.8 1.3-1.8 2.2-3.2 2.9-1.3.7-2.8 1.1-4.4 1.1-1.6 0-3.1-.4-4.4-1.1-1.3-.7-2.4-1.7-3.2-2.9-.7-1.2-1.1-2.6-1.1-4.1V.7h3.4zM292.1.6c1.5 0 2.8.2 3.9.5s2 .8 3 1.3l.2.1-1.4 2.8c-1.9-1-3.7-1.5-5.2-1.5-1.1 0-2 .2-2.7.7-.7.5-1 1.2-1 2.1 0 .9.4 1.6 1.2 2.1.8.6 2 1.1 3.4 1.7 1.1.4 2.1.8 2.9 1.4.8.5 1.5 1.2 2 2.1.5.9.8 2 .8 3.3 0 1.2-.3 2.3-.9 3.3-.6 1-1.5 1.8-2.6 2.3-1.1.6-2.5.9-4 .9-1.4 0-2.7-.2-4-.6-1.3-.4-2.4-.9-3.4-1.6l-.2-.1 1.6-2.8c.8.6 1.7 1.1 2.7 1.4 1 .4 2 .6 2.9.6 1.1 0 2.1-.3 2.9-.8.8-.5 1.2-1.3 1.2-2.4 0-.9-.3-1.6-1-2.2-.7-.6-1.7-1.1-2.9-1.6-1.3-.5-2.4-.9-3.2-1.4-.8-.5-1.6-1.1-2.2-2-.6-.8-.9-1.9-.9-3.2 0-1.8.6-3.3 1.9-4.5 1.3-1.2 2.9-1.8 5-1.9zM38.4.7v3.5H27v6h10.1v3.5H27v6.2h11.8v3.5H23.4V.7h15zm51.5 0v3.5H78.5v6h10.1v3.5H78.5v6.2h11.8v3.5H74.9V.7h15zM222 .7c2.8 0 5.2.6 7 1.7 1.9 1.1 3.2 2.6 4.1 4.3.9 1.8 1.3 3.6 1.3 5.6 0 2.2-.5 4.1-1.5 5.8-1 1.7-2.4 3-4.1 3.9-1.7.9-3.5 1.3-5.4 1.4h-7.7V.7h6.3zm26.5-.9l10 23.6h-4.2l-2.1-5.3H244l-2.2 5.3h-3.6l10-23.6h.3zm15.7.9l5.8 11.2L275.7.7h4.4L271.8 16v7.3h-3.6V16L259.8.7h4.4zM223 4.2h-3.8v15.7h3.2c1.6 0 3-.3 4.3-.9 1.2-.6 2.2-1.5 2.9-2.7.7-1.2 1-2.6 1-4.2 0-1.8-.4-3.3-1.1-4.5s-1.7-2.1-2.9-2.6-2.4-.8-3.6-.8zm25.2 3.6l-2.9 7.2h5.8l-2.9-7.2z"/><path d="M67.3.7v22.6h-7.6L46.4 5.9h8l7 9.5V.7h5.9z" fill="#1e5fc6"/><path d="M50.8.7L54 5.2h-7.9L42.8.7h8z" fill="#fe0008"/><path d="M48 1.3l.9 1.2h1.2l.7.9h-1.2l.9 1.3h-1.3l-.9-1.3h-1.6l-.7-.9h1.5l-.9-1.2H48z" fill="#fff"/></svg>